<svg width="24" height="24" viewBox="0 0 24 24" fill="none" xmlns="http://www.w3.org/2000/svg">
<path d="M12.0684 2.03418C12.5654 2.03421 12.9687 2.43755 12.9688 2.93457V11.0996H21.0654C21.5625 11.0996 21.9658 11.503 21.9658 12C21.9658 12.497 21.5625 12.9004 21.0654 12.9004H12.9688V21.0654C12.9687 21.5624 12.5654 21.9658 12.0684 21.9658C11.5713 21.9658 11.168 21.5625 11.168 21.0654V12.9004H2.93457C2.43751 12.9004 2.03418 12.4971 2.03418 12C2.03418 11.5029 2.43751 11.0996 2.93457 11.0996H11.168V2.93457C11.168 2.43753 11.5713 2.03418 12.0684 2.03418Z" fill="currentColor"/>
</svg>
