<svg width="24" height="24" viewBox="0 0 24 24" fill="none" xmlns="http://www.w3.org/2000/svg">
<path d="M12 2C17.5228 2 22 6.47715 22 12C22 17.5228 17.5228 22 12 22C6.47715 22 2 17.5228 2 12C2 6.47715 6.47715 2 12 2ZM12 3.7998C7.47126 3.7998 3.7998 7.47126 3.7998 12C3.7998 16.5287 7.47126 20.2002 12 20.2002C16.5287 20.2002 20.2002 16.5287 20.2002 12C20.2002 7.47126 16.5287 3.7998 12 3.7998ZM12 13C13.498 13 14.6799 13.6006 15.4668 14.1729C15.8617 14.4601 16.1672 14.747 16.376 14.9648C16.4808 15.0742 16.5627 15.168 16.6201 15.2363C16.6487 15.2704 16.6719 15.2983 16.6885 15.3193L16.7158 15.3545L16.7178 15.3574L16.7188 15.3594L16.7197 15.3604C17.0179 15.7579 16.9375 16.3219 16.54 16.6201C16.1424 16.9183 15.5785 16.8379 15.2803 16.4404L15.2773 16.4365C15.2708 16.4283 15.2584 16.4131 15.2412 16.3926C15.2068 16.3516 15.1517 16.2887 15.0771 16.2109C14.9266 16.0539 14.7005 15.8405 14.4082 15.6279C13.8201 15.2002 13.002 14.8008 12 14.8008C10.998 14.8008 10.1799 15.2002 9.5918 15.6279C9.29948 15.8405 9.07339 16.0539 8.92285 16.2109C8.84832 16.2887 8.79318 16.3516 8.75879 16.3926C8.74161 16.4131 8.72917 16.4283 8.72266 16.4365C8.72127 16.4383 8.71875 16.4404 8.71875 16.4404C8.42039 16.8375 7.8574 16.9182 7.45996 16.6201C7.06245 16.3219 6.98208 15.7579 7.28027 15.3604L8 15.9004C7.28194 15.3618 7.28125 15.3594 7.28125 15.3594L7.28223 15.3574L7.28418 15.3545L7.31152 15.3193C7.32815 15.2983 7.35129 15.2704 7.37988 15.2363C7.43725 15.168 7.51923 15.0742 7.62402 14.9648C7.83283 14.747 8.1383 14.4601 8.5332 14.1729C9.3201 13.6006 10.502 13 12 13ZM9.00977 8.25C9.70012 8.25 10.2598 8.80964 10.2598 9.5C10.2598 10.1904 9.70012 10.75 9.00977 10.75H9C8.30964 10.75 7.75 10.1904 7.75 9.5C7.75 8.80964 8.30964 8.25 9 8.25H9.00977ZM15.0098 8.25C15.7001 8.25 16.2598 8.80964 16.2598 9.5C16.2598 10.1904 15.7001 10.75 15.0098 10.75H15C14.3096 10.75 13.75 10.1904 13.75 9.5C13.75 8.80964 14.3096 8.25 15 8.25H15.0098Z" fill="currentColor"/>
</svg>
