<svg width="24" height="24" viewBox="0 0 24 24" fill="none" xmlns="http://www.w3.org/2000/svg">
<path d="M20.0996 12C20.0996 7.52636 16.4736 3.90039 12 3.90039C7.52636 3.90039 3.90039 7.52636 3.90039 12C3.90039 16.4736 7.52636 20.0996 12 20.0996C16.4736 20.0996 20.0996 16.4736 20.0996 12ZM21.9004 12C21.9004 17.4678 17.4678 21.9004 12 21.9004C6.53224 21.9004 2.09961 17.4678 2.09961 12C2.09961 6.53224 6.53224 2.09961 12 2.09961C17.4678 2.09961 21.9004 6.53224 21.9004 12Z" fill="currentColor"/>
<path d="M15.4359 14.2906C15.7873 14.642 15.7878 15.2118 15.4366 15.5633C15.0852 15.9148 14.5148 15.9148 14.1633 15.5633L8.43668 9.83669C8.08521 9.48522 8.08521 8.91482 8.43668 8.56335C8.78817 8.21215 9.35795 8.21266 9.70933 8.56404L15.4359 14.2906Z" fill="currentColor"/>
</svg>
