<svg width="24" height="24" viewBox="0 0 24 24" fill="none" xmlns="http://www.w3.org/2000/svg">
<path d="M11.1504 16.9189C11.6853 16.6515 12.3147 16.6515 12.8496 16.9189L17.9551 19.4717C18.0216 19.5049 18.0996 19.4562 18.0996 19.3818V5C18.0996 4.94477 18.0552 4.90039 18 4.90039H6C5.94477 4.90039 5.90039 4.94477 5.90039 5V19.3818C5.90039 19.4562 5.97843 19.5049 6.04492 19.4717L11.1504 16.9189ZM19.9004 19.3818C19.9004 20.7943 18.4137 21.7127 17.1504 21.0811L12.0449 18.5283C12.0168 18.5142 11.9832 18.5142 11.9551 18.5283L6.84961 21.0811C5.5863 21.7127 4.09961 20.7943 4.09961 19.3818V5C4.09961 3.95066 4.95066 3.09961 6 3.09961H18C19.0493 3.09961 19.9004 3.95066 19.9004 5V19.3818Z" fill="currentColor"/>
<path d="M8.59961 10.5V8C8.59961 7.50294 9.00294 7.09961 9.5 7.09961C9.99706 7.09961 10.4004 7.50294 10.4004 8V10.5C10.4004 10.9971 9.99706 11.4004 9.5 11.4004C9.00294 11.4004 8.59961 10.9971 8.59961 10.5Z" fill="currentColor"/>
<path d="M13.5996 10.5V8C13.5996 7.50294 14.0029 7.09961 14.5 7.09961C14.9971 7.09961 15.4004 7.50294 15.4004 8V10.5C15.4004 10.9971 14.9971 11.4004 14.5 11.4004C14.0029 11.4004 13.5996 10.9971 13.5996 10.5Z" fill="currentColor"/>
<path d="M13.1133 12.3633C13.4648 12.0118 14.0352 12.0118 14.3867 12.3633C14.7382 12.7147 14.7382 13.2852 14.3867 13.6367C13.9823 14.0412 13.3133 14.3438 12.7217 14.541C12.1 14.7482 11.3758 14.9004 10.75 14.9004C10.2529 14.9004 9.84961 14.497 9.84961 14C9.84961 13.5029 10.2529 13.0996 10.75 13.0996C11.1241 13.0996 11.6501 13.0017 12.1533 12.834C12.6866 12.6562 13.0178 12.4588 13.1133 12.3633Z" fill="currentColor"/>
</svg>
