<svg width="24" height="24" viewBox="0 0 24 24" fill="none" xmlns="http://www.w3.org/2000/svg">
<path d="M12.3994 12.4863C12.396 10.8789 14.2659 9.99419 15.5068 11.0156L21.3887 15.8594C22.6251 16.8787 22.1145 18.8522 20.5918 19.1816L20.4404 19.207L17.6953 19.5889C17.6853 19.5903 17.675 19.5934 17.666 19.5977L17.6416 19.6143L15.6055 21.4961L15.4902 21.5957C14.3092 22.5333 12.5401 21.7604 12.4238 20.2568L12.417 20.1045L12.3994 12.4863ZM14.2568 12.3916C14.2298 12.4044 14.2145 12.4205 14.209 12.4287C14.2068 12.4321 14.2055 12.4358 14.2041 12.4404C14.2028 12.4447 14.1992 12.4578 14.1992 12.4824L14.2168 20.0996L14.2227 20.1445C14.2241 20.149 14.2254 20.1522 14.2275 20.1553C14.2329 20.1629 14.2486 20.1788 14.2773 20.1914C14.3063 20.204 14.329 20.2044 14.3379 20.2031C14.3414 20.2026 14.3446 20.2011 14.3486 20.1992C14.3527 20.1972 14.3649 20.1912 14.3838 20.1738L16.4199 18.292L16.5156 18.2041L16.623 18.1299L16.6475 18.1133L16.7646 18.0342L16.8916 17.9727C17.104 17.8715 17.3 17.827 17.4443 17.8066H17.4473L20.1475 17.4307L20.2217 17.417C20.231 17.4143 20.2373 17.4141 20.2393 17.4131C20.2419 17.4115 20.2448 17.4086 20.248 17.4053C20.2562 17.3968 20.27 17.378 20.2773 17.3486C20.2846 17.3193 20.2817 17.298 20.2793 17.29C20.2783 17.2869 20.2761 17.2833 20.2734 17.2793C20.2707 17.2752 20.2631 17.2637 20.2441 17.248V17.249L14.3623 12.4053C14.3434 12.3898 14.3313 12.3836 14.3271 12.3818C14.323 12.3802 14.3192 12.3793 14.3154 12.3789C14.3054 12.378 14.2834 12.3791 14.2568 12.3916ZM18.6797 2.00488C20.5292 2.09842 22 3.62727 22 5.5L21.9951 13H20.2002V9H3.7998V16C3.7998 16.9389 4.56112 17.7002 5.5 17.7002H11V19.5H5.5L5.32031 19.4951C3.53035 19.4046 2.09541 17.9697 2.00488 16.1797L2 16V5.5C2 3.62727 3.47083 2.09842 5.32031 2.00488L5.5 2H18.5L18.6797 2.00488ZM5.5 3.7998C4.61979 3.7998 3.89565 4.46893 3.80859 5.32617L3.7998 5.5V7.2002H20.2002V5.5C20.2002 4.61979 19.5311 3.89565 18.6738 3.80859L18.5 3.7998H5.5ZM7.3916 4.60449C7.84564 4.65038 8.2002 5.03386 8.2002 5.5C8.2002 5.96614 7.84564 6.34962 7.3916 6.39551L7.2998 6.40039H5.5C5.00294 6.40039 4.59961 5.99706 4.59961 5.5C4.59961 5.00294 5.00294 4.59961 5.5 4.59961H7.2998L7.3916 4.60449Z" fill="currentColor"/>
</svg>
