<svg width="24" height="24" viewBox="0 0 24 24" fill="none" xmlns="http://www.w3.org/2000/svg">
<path fill-rule="evenodd" clip-rule="evenodd" d="M4.09998 5.99998C4.09998 5.50292 4.50292 5.09998 4.99998 5.09998H19C19.497 5.09998 19.9 5.50292 19.9 5.99998C19.9 6.49703 19.497 6.89998 19 6.89998H4.99998C4.50292 6.89998 4.09998 6.49703 4.09998 5.99998ZM4.09998 12C4.09998 11.5029 4.50292 11.1 4.99998 11.1H13C13.497 11.1 13.9 11.5029 13.9 12C13.9 12.497 13.497 12.9 13 12.9H4.99998C4.50292 12.9 4.09998 12.497 4.09998 12ZM4.09998 18C4.09998 17.5029 4.50292 17.1 4.99998 17.1H13C13.497 17.1 13.9 17.5029 13.9 18C13.9 18.497 13.497 18.9 13 18.9H4.99998C4.50292 18.9 4.09998 18.497 4.09998 18Z" fill="currentColor"/>
</svg>
