<svg width="24" height="24" viewBox="0 0 24 24" fill="none" xmlns="http://www.w3.org/2000/svg">
<path fill-rule="evenodd" clip-rule="evenodd" d="M3.16851 9.84439C3.02921 9.50808 3.10621 9.12098 3.36361 8.86358L7.86361 4.36358C8.21508 4.01211 8.78493 4.01211 9.1364 4.36358C9.48787 4.71505 9.48787 5.2849 9.1364 5.63637L6.17279 8.59998H20C20.4971 8.59998 20.9 9.00292 20.9 9.49998C20.9 9.99703 20.4971 10.4 20 10.4H4C3.63599 10.4 3.30781 10.1807 3.16851 9.84439Z" fill="currentColor"/>
<path fill-rule="evenodd" clip-rule="evenodd" d="M20.8315 14.1556C20.9708 14.4919 20.8938 14.879 20.6364 15.1364L16.1364 19.6364C15.7849 19.9878 15.2151 19.9878 14.8636 19.6364C14.5121 19.2849 14.5121 18.7151 14.8636 18.3636L17.8272 15.4H4C3.50294 15.4 3.1 14.997 3.1 14.5C3.1 14.0029 3.50294 13.6 4 13.6H20C20.364 13.6 20.6922 13.8193 20.8315 14.1556Z" fill="currentColor"/>
</svg>
