<svg width="24" height="24" viewBox="0 0 24 24" fill="none" xmlns="http://www.w3.org/2000/svg">
<path fill-rule="evenodd" clip-rule="evenodd" d="M5.33687 6.99039C5.3578 5.78589 5.85099 4.6378 6.7102 3.79339C7.56941 2.94899 8.7259 2.47583 9.93058 2.47583C11.1353 2.47583 12.2918 2.94899 13.151 3.79339C14.0102 4.6378 14.5034 5.78589 14.5243 6.9904L14.5244 6.99413L14.6366 15.4805L14.6367 15.4826C14.6427 15.8466 14.5763 16.2082 14.4414 16.5464C14.3062 16.8852 14.1049 17.1937 13.8492 17.4539C13.5935 17.714 13.2886 17.9207 12.9522 18.0617C12.6158 18.2028 12.2546 18.2754 11.8898 18.2754C11.5251 18.2754 11.1639 18.2028 10.8275 18.0617C10.4911 17.9207 10.1862 17.714 9.93046 17.4539C9.67477 17.1937 9.47346 16.8852 9.33826 16.5464C9.20413 16.2102 9.13775 15.8509 9.14291 15.4891L9.14291 6.8937C9.14291 6.39665 9.54585 5.9937 10.0429 5.9937C10.54 5.9937 10.9429 6.39665 10.9429 6.8937L10.9429 15.4961L10.9428 15.5118C10.9406 15.6375 10.9635 15.7625 11.0101 15.8793C11.0567 15.9961 11.1261 16.1025 11.2143 16.1922C11.3024 16.2819 11.4076 16.3531 11.5236 16.4018C11.6395 16.4504 11.7641 16.4754 11.8898 16.4754C12.0156 16.4754 12.1401 16.4504 12.2561 16.4018C12.3721 16.3531 12.4772 16.2819 12.5654 16.1922C12.6536 16.1025 12.723 15.9961 12.7696 15.8793C12.8162 15.7625 12.8391 15.6375 12.8369 15.5118L12.8368 15.508L12.7246 7.02168L12.7245 7.0199C12.7113 6.28795 12.4114 5.59037 11.8893 5.0772C11.3667 4.56361 10.6633 4.27583 9.93058 4.27583C9.19787 4.27583 8.49447 4.56361 7.97188 5.0772C7.45232 5.5878 7.15282 6.28097 7.13685 7.00892L7.24783 15.4961C7.24783 16.7273 7.73683 17.908 8.60739 18.7786C9.47795 19.6491 10.6587 20.1382 11.8898 20.1382C13.121 20.1382 14.3017 19.6491 15.1723 18.7786C16.0428 17.908 16.5319 16.7273 16.5319 15.4961L16.5411 7.33157C16.5416 6.83451 16.945 6.43202 17.4421 6.43258C17.9391 6.43313 18.3416 6.83653 18.3411 7.33359L18.3319 15.4961C18.3318 17.2045 17.6531 18.8434 16.4451 20.0514C15.2369 21.2595 13.5984 21.9382 11.8898 21.9382C10.1813 21.9382 8.54272 21.2595 7.3346 20.0514C6.12791 18.8447 5.44937 17.2086 5.44776 15.5022L5.33681 7.0178C5.33669 7.00867 5.33671 6.99953 5.33687 6.99039Z" fill="currentColor"/>
</svg>
