<svg width="24" height="24" viewBox="0 0 24 24" fill="none" xmlns="http://www.w3.org/2000/svg">
<path d="M17.9542 4.77253C18.3056 4.42106 18.8761 4.42106 19.2276 4.77253C19.579 5.12401 19.579 5.69452 19.2276 6.04597L13.2735 12.0001L19.2276 17.9542C19.5791 18.3056 19.5791 18.8761 19.2276 19.2276C18.8761 19.5791 18.3056 19.5791 17.9542 19.2276L12.0001 13.2735L6.04595 19.2276C5.69451 19.5791 5.12399 19.579 4.77252 19.2276C4.42104 18.8761 4.42104 18.3056 4.77252 17.9542L10.7266 12.0001L4.77252 6.04597C4.42104 5.6945 4.42104 5.124 4.77252 4.77253C5.12399 4.42107 5.69448 4.42106 6.04595 4.77253L12.0001 10.7266L17.9542 4.77253Z" fill="currentColor"/>
</svg>
