<svg width="24" height="24" viewBox="0 0 24 24" fill="none" xmlns="http://www.w3.org/2000/svg">
<path d="M16.5293 15.0596C16.9496 15.1021 17.2772 15.4572 17.2773 15.8887C17.2773 16.3202 16.9497 16.6753 16.5293 16.7178L16.4443 16.7217H12C11.5399 16.7216 11.167 16.3488 11.167 15.8887C11.1671 15.4286 11.54 15.0558 12 15.0557H16.4443L16.5293 15.0596Z" fill="currentColor"/>
<path d="M6.96582 7.52246C7.27077 7.21751 7.75375 7.1983 8.08105 7.46484L8.14453 7.52246L10.8232 10.2002C11.5102 10.8872 11.5102 12.0014 10.8232 12.6885L8.14453 15.3672L8.08105 15.4248C7.75377 15.6913 7.27075 15.6721 6.96582 15.3672C6.66114 15.0621 6.64234 14.5791 6.90918 14.252L6.96582 14.1885L9.64453 11.5098C9.68057 11.4736 9.68062 11.415 9.64453 11.3789L6.96582 8.7002C6.64116 8.37488 6.6411 7.84774 6.96582 7.52246Z" fill="currentColor"/>
<path fill-rule="evenodd" clip-rule="evenodd" d="M17 3.09961C19.1539 3.09966 20.9004 4.84612 20.9004 7V17C20.9004 19.1539 19.1539 20.9003 17 20.9004H7C4.84609 20.9004 3.09961 19.1539 3.09961 17V7C3.09961 4.84609 4.84609 3.09961 7 3.09961H17ZM7 4.90039C5.8402 4.90039 4.90039 5.8402 4.90039 7V17C4.90039 18.1598 5.8402 19.0996 7 19.0996H17C18.1598 19.0996 19.0996 18.1598 19.0996 17V7C19.0996 5.84024 18.1598 4.90044 17 4.90039H7Z" fill="currentColor"/>
</svg>
