<svg width="24" height="24" viewBox="0 0 24 24" fill="none" xmlns="http://www.w3.org/2000/svg">
<path d="M9.85815 11.957C10.9074 11.957 11.7583 12.8083 11.7585 13.8574V19.8574C11.7585 20.3545 11.3552 20.7578 10.8582 20.7578C10.3611 20.7578 9.95776 20.3545 9.95776 19.8574V13.8574C9.95755 13.8024 9.91325 13.7578 9.85815 13.7578H3.85815C3.3611 13.7578 2.95776 13.3545 2.95776 12.8574C2.95798 12.3605 3.36123 11.957 3.85815 11.957H9.85815Z" fill="currentColor"/>
<path d="M12.8582 2.95703C13.3551 2.95703 13.7583 3.36054 13.7585 3.85742V9.85742C13.7585 9.91265 13.8029 9.95703 13.8582 9.95703H19.8582C20.3551 9.95703 20.7583 10.3605 20.7585 10.8574C20.7585 11.3545 20.3552 11.7578 19.8582 11.7578H13.8582C12.8088 11.7578 11.9578 10.9068 11.9578 9.85742V3.85742C11.958 3.36054 12.3612 2.95703 12.8582 2.95703Z" fill="currentColor"/>
</svg>
