<svg width="24" height="24" viewBox="0 0 24 24" fill="none" xmlns="http://www.w3.org/2000/svg">
<path d="M11.9004 2.19995C17.3678 2.20016 21.7998 6.63285 21.7998 12.1003C21.7996 17.5677 17.3677 21.9995 11.9004 21.9998H3.80078C2.72946 21.9996 2.00334 20.9089 2.41699 19.9207L3.49805 17.3386C2.54871 15.8189 2.00007 14.0226 2 12.1003C2 6.63272 6.43277 2.19995 11.9004 2.19995ZM11.9004 3.99976C7.42688 3.99976 3.7998 7.62684 3.7998 12.1003C3.79989 13.8228 4.33669 15.4175 5.25195 16.7292L5.53516 17.1345L4.25195 20.2H11.8994C16.3727 20.1999 19.9998 16.5736 20 12.1003C20 7.62697 16.3737 3.99997 11.9004 3.99976ZM8.9541 10.8005C9.75473 10.8006 10.4041 11.4491 10.4043 12.2498C10.4043 13.0505 9.75482 13.6998 8.9541 13.7C8.15329 13.7 7.50391 13.0506 7.50391 12.2498C7.50406 11.4491 8.15339 10.8005 8.9541 10.8005ZM15.1533 10.8005C15.9539 10.8006 16.6034 11.4491 16.6035 12.2498C16.6035 13.0505 15.954 13.6998 15.1533 13.7C14.3525 13.7 13.7031 13.0506 13.7031 12.2498C13.7033 11.4491 14.3526 10.8005 15.1533 10.8005Z" fill="currentColor"/>
</svg>
