<svg width="24" height="24" viewBox="0 0 24 24" fill="none" xmlns="http://www.w3.org/2000/svg">
<g clip-path="url(#clip0_12787_15678)">
<rect x="18.5" y="4.5" width="1" height="1" fill="#777777" fill-opacity="0.9"/>
<rect x="17.5" y="2.5" width="1" height="11" transform="rotate(90 17.5 2.5)" fill="#777777" fill-opacity="0.9"/>
<rect x="18.5" y="19.5" width="1" height="1" transform="rotate(90 18.5 19.5)" fill="#777777" fill-opacity="0.9"/>
<rect x="4.5" y="5.5" width="1" height="1" transform="rotate(90 4.5 5.5)" fill="#777777" fill-opacity="0.9"/>
<rect x="20.5" y="17.5" width="1" height="1" transform="rotate(90 20.5 17.5)" fill="#777777" fill-opacity="0.9"/>
<rect x="5.5" y="4.5" width="1" height="1" transform="rotate(90 5.5 4.5)" fill="#777777" fill-opacity="0.9"/>
<rect x="7" y="11" width="1" height="1" fill="#777777" fill-opacity="0.9"/>
<rect x="6" y="11" width="1" height="1" fill="#777777" fill-opacity="0.9"/>
<rect x="7" y="12" width="1" height="1" fill="#777777" fill-opacity="0.9"/>
<rect x="8" y="12" width="1" height="1" fill="#777777" fill-opacity="0.9"/>
<rect x="8" y="13" width="1" height="1" fill="#777777" fill-opacity="0.9"/>
<rect x="9" y="13" width="1" height="1" fill="#777777" fill-opacity="0.9"/>
<rect x="9" y="14" width="1" height="1" fill="#777777" fill-opacity="0.9"/>
<rect x="10" y="14" width="1" height="1" fill="#777777" fill-opacity="0.9"/>
<rect x="10" y="15" width="1" height="1" fill="#777777" fill-opacity="0.9"/>
<rect x="11" y="13" width="1" height="1" fill="#777777" fill-opacity="0.9"/>
<rect x="11" y="14" width="1" height="1" fill="#777777" fill-opacity="0.9"/>
<rect x="12" y="12" width="1" height="1" fill="#777777" fill-opacity="0.9"/>
<rect x="12" y="13" width="1" height="1" fill="#777777" fill-opacity="0.9"/>
<rect x="13" y="11" width="1" height="1" fill="#777777" fill-opacity="0.9"/>
<rect x="13" y="12" width="1" height="1" fill="#777777" fill-opacity="0.9"/>
<rect x="14" y="10" width="1" height="1" fill="#777777" fill-opacity="0.9"/>
<rect x="14" y="11" width="1" height="1" fill="#777777" fill-opacity="0.9"/>
<rect x="15" y="9" width="1" height="1" fill="#777777" fill-opacity="0.9"/>
<rect x="15" y="10" width="1" height="1" fill="#777777" fill-opacity="0.9"/>
<rect x="16" y="8" width="1" height="1" fill="#777777" fill-opacity="0.9"/>
<rect x="16" y="9" width="1" height="1" fill="#777777" fill-opacity="0.9"/>
<rect x="17" y="8" width="1" height="1" fill="#777777" fill-opacity="0.9"/>
<rect x="5.5" y="3.5" width="1" height="1" fill="#777777" fill-opacity="0.9"/>
<rect x="18.5" y="18.5" width="1" height="1" fill="#777777" fill-opacity="0.9"/>
<rect x="6.5" y="20.5" width="11" height="1" fill="#777777" fill-opacity="0.9"/>
<rect x="3.5" y="17.5" width="1" height="1" fill="#777777" fill-opacity="0.9"/>
<rect x="4.5" y="18.5" width="1" height="1" fill="#777777" fill-opacity="0.9"/>
<rect x="5.5" y="19.5" width="1" height="1" fill="#777777" fill-opacity="0.9"/>
<rect x="2.5" y="6.5" width="1" height="11" fill="#777777" fill-opacity="0.9"/>
<rect x="19.5" y="5.5" width="1" height="1" fill="#777777" fill-opacity="0.9"/>
<rect x="20.5" y="6.5" width="1" height="11" fill="#777777" fill-opacity="0.9"/>
<rect x="17.5" y="3.5" width="1" height="1" fill="#777777" fill-opacity="0.9"/>
</g>
<defs>
<clipPath id="clip0_12787_15678">
<rect width="24" height="24" fill="white"/>
</clipPath>
</defs>
</svg>
