<svg width="24" height="24" viewBox="0 0 24 24" fill="none" xmlns="http://www.w3.org/2000/svg">
<path fill-rule="evenodd" clip-rule="evenodd" d="M17 7.09961C19.1539 7.09961 20.9004 8.84609 20.9004 11V17C20.9004 19.1539 19.1539 20.9004 17 20.9004H11C8.84609 20.9004 7.09961 19.1539 7.09961 17V11C7.09961 8.84609 8.84609 7.09961 11 7.09961H17ZM11 8.90039C9.8402 8.90039 8.90039 9.8402 8.90039 11V17C8.90039 18.1598 9.8402 19.0996 11 19.0996H17C18.1598 19.0996 19.0996 18.1598 19.0996 17V11C19.0996 9.8402 18.1598 8.90039 17 8.90039H11Z" fill="currentColor"/>
<path d="M13 3.09961C14.4447 3.09961 15.705 3.88644 16.3779 5.0498C16.6265 5.47999 16.4789 6.03049 16.0488 6.2793C15.6186 6.52781 15.0681 6.38029 14.8193 5.9502C14.4548 5.32041 13.776 4.90039 13 4.90039H7C5.8402 4.90039 4.90039 5.8402 4.90039 7V13C4.90039 13.776 5.32041 14.4548 5.9502 14.8193C6.38029 15.0681 6.52781 15.6186 6.2793 16.0488C6.03049 16.4789 5.47999 16.6265 5.0498 16.3779C3.88644 15.705 3.09961 14.4447 3.09961 13V7C3.09961 4.84609 4.84609 3.09961 7 3.09961H13Z" fill="currentColor"/>
</svg>
