<svg width="24" height="24" viewBox="0 0 24 24" fill="none" xmlns="http://www.w3.org/2000/svg">
<path fill-rule="evenodd" clip-rule="evenodd" d="M12.001 6.18164C13.8356 6.18235 15.3249 7.67013 15.3252 9.50488C15.3251 10.4945 14.8908 11.3832 14.2041 11.9922C16.3224 12.7163 18.0686 14.5261 18.3242 17.4199C18.3676 17.9145 18.0012 18.3513 17.5068 18.3955C17.012 18.439 16.5752 18.0729 16.5312 17.5781C16.0428 12.0476 7.95919 12.0477 7.4707 17.5781C7.42686 18.0727 6.98965 18.4385 6.49512 18.3955C6.00018 18.3518 5.63427 17.9148 5.67773 17.4199C5.93336 14.5257 7.6792 12.7161 9.79785 11.9922C9.11112 11.3832 8.67781 10.4947 8.67773 9.50488C8.67798 7.66984 10.1659 6.18188 12.001 6.18164ZM12.001 7.98242C11.16 7.98266 10.4788 8.66395 10.4785 9.50488C10.4786 10.3459 11.16 11.0281 12.001 11.0283C12.8416 11.0276 13.5243 10.3456 13.5244 9.50488C13.5242 8.66424 12.8415 7.98313 12.001 7.98242Z" fill="currentColor"/>
<path fill-rule="evenodd" clip-rule="evenodd" d="M16.4355 3.09961C19.1417 3.09961 21.3359 5.2938 21.3359 8V16.8711C21.3359 19.5773 19.1417 21.7715 16.4355 21.7715H7.56445C4.85826 21.7715 2.66406 19.5773 2.66406 16.8711V8C2.66406 5.29381 4.85826 3.09961 7.56445 3.09961H16.4355ZM7.56445 4.90039C5.85237 4.90039 4.46484 6.28792 4.46484 8V16.8711C4.46484 18.5832 5.85237 19.9707 7.56445 19.9707H16.4355C18.1476 19.9707 19.5352 18.5832 19.5352 16.8711V8C19.5352 6.28792 18.1476 4.90039 16.4355 4.90039H7.56445Z" fill="currentColor"/>
</svg>
