<svg width="24" height="24" viewBox="0 0 24 24" fill="none" xmlns="http://www.w3.org/2000/svg">
<path d="M10.2441 3.1709C11.0067 3.02014 11.4972 3.8589 11.1953 4.5752C8.57859 10.7854 13.2146 15.4214 19.4248 12.8047C20.1411 12.5028 20.9799 12.9933 20.8291 13.7559C20.0124 17.8859 16.3697 21 12 21C7.02945 21 3.00001 16.9706 3 12C3 7.63028 6.11411 3.98763 10.2441 3.1709ZM8.99609 5.4541C6.51967 6.59266 4.7998 9.09697 4.7998 12C4.79982 15.9764 8.02356 19.2002 12 19.2002C14.903 19.2002 17.4073 17.4803 18.5459 15.0039C15.5117 15.8069 12.6488 15.1937 10.7275 13.2725C8.8063 11.3512 8.19311 8.48829 8.99609 5.4541ZM16.5 5.09961C16.9968 5.09982 17.3992 5.50324 17.3994 6V6.59961H18C18.4968 6.59982 18.8992 7.00324 18.8994 7.5C18.8992 7.99672 18.4967 8.3992 18 8.39941H17.3994V9C17.3992 9.49675 16.9967 9.8992 16.5 9.89941C16.0033 9.8992 15.5998 9.49674 15.5996 9V8.39941H15C14.5033 8.3992 14.0998 7.99672 14.0996 7.5C14.0998 7.00324 14.5032 6.59982 15 6.59961H15.5996V6C15.5998 5.50324 16.0032 5.09982 16.5 5.09961Z" fill="currentColor"/>
</svg>
