<svg width="24" height="24" viewBox="0 0 24 24" fill="none" xmlns="http://www.w3.org/2000/svg">
<path fill-rule="evenodd" clip-rule="evenodd" d="M12.0996 2C14.1963 2.00002 16.1125 2.3224 17.5371 2.87402C18.2464 3.1487 18.8793 3.49843 19.3506 3.93164C19.8228 4.36576 20.2 4.95206 20.2002 5.66895V13.9688L20.1992 13.9736L20.2002 13.9785V18.1318C20.2 18.8486 19.8228 19.4351 19.3506 19.8691C18.8793 20.3023 18.2464 20.6521 17.5371 20.9268C16.1125 21.4784 14.1963 21.8008 12.0996 21.8008C10.0032 21.8008 8.08759 21.4782 6.66309 20.9268C5.95381 20.6521 5.31994 20.3023 4.84863 19.8691C4.37651 19.4351 4.00024 18.8486 4 18.1318V5.66895C4.00015 4.95211 4.37645 4.36575 4.84863 3.93164C5.31995 3.49842 5.95375 3.14869 6.66309 2.87402C8.0876 2.32255 10.0032 2.00002 12.0996 2ZM18.3994 16.334C18.0221 16.5423 17.6065 16.7295 17.1748 16.8955C17.1589 16.9016 17.1422 16.9069 17.126 16.9121C15.7376 17.357 14.0605 17.6474 12.0996 17.6475C10.1387 17.6474 8.46166 17.357 7.07324 16.9121C7.05707 16.9069 7.04028 16.9016 7.02441 16.8955C6.59274 16.7295 6.17711 16.5422 5.7998 16.334V18.1318C5.80001 18.1769 5.82098 18.3174 6.06738 18.5439C6.31607 18.7724 6.72644 19.0211 7.3125 19.248C8.47983 19.7 10.1647 20 12.0996 20C14.0346 20 15.7194 19.7 16.8867 19.248C17.4732 19.021 17.8841 18.7725 18.1328 18.5439C18.3791 18.3175 18.3992 18.1769 18.3994 18.1318V16.334ZM18.3994 12.1797C18.022 12.3877 17.6065 12.5742 17.1748 12.7402C17.1589 12.7464 17.1422 12.7526 17.126 12.7578C15.7376 13.2027 14.0605 13.4931 12.0996 13.4932C10.1386 13.4931 8.46168 13.2027 7.07324 12.7578C7.05701 12.7526 7.04033 12.7464 7.02441 12.7402C6.93246 12.7049 6.84129 12.668 6.75098 12.6309C6.41025 12.5006 6.09127 12.359 5.7998 12.2041V13.9688C5.79995 13.99 5.81136 14.1397 6.14648 14.4082C6.47147 14.6685 6.9801 14.9371 7.65332 15.1973C8.85133 15.5775 10.3321 15.8369 12.0996 15.8369C13.8675 15.8369 15.3487 15.5777 16.5469 15.1973C17.2198 14.9372 17.7278 14.6684 18.0527 14.4082C18.3879 14.1397 18.3993 13.99 18.3994 13.9688V12.1797ZM18.3369 8.05859C18.2832 8.08757 18.229 8.11644 18.1738 8.14453C18.1338 8.16498 18.0934 8.18507 18.0527 8.20508C18.0069 8.22751 17.9607 8.24963 17.9141 8.27148C17.8598 8.29706 17.8053 8.32283 17.75 8.34766C17.7267 8.35804 17.7031 8.36768 17.6797 8.37793C17.5146 8.45061 17.3464 8.5219 17.1748 8.58789C17.159 8.59398 17.1422 8.59931 17.126 8.60449C15.7376 9.04937 14.0605 9.33983 12.0996 9.33984C10.1386 9.33982 8.46169 9.0494 7.07324 8.60449C7.05701 8.59929 7.04033 8.594 7.02441 8.58789C7.00934 8.58209 6.99453 8.57518 6.97949 8.56934C6.55215 8.41696 6.15554 8.24768 5.7998 8.05859V9.81543L5.80273 9.84473C5.81281 9.89717 5.86573 10.0387 6.14648 10.2637C6.44536 10.5031 6.90037 10.7469 7.49512 10.9873C7.54316 11.005 7.59229 11.0234 7.64258 11.041C8.84246 11.4231 10.3269 11.6846 12.0996 11.6846C13.8675 11.6846 15.3487 11.4244 16.5469 11.0439C17.2199 10.7838 17.7279 10.5151 18.0527 10.2549C18.3054 10.0525 18.374 9.91761 18.3926 9.85449L18.3994 9.81543V8.02637C18.379 8.03763 18.3575 8.04745 18.3369 8.05859ZM12.0996 3.80078C10.1646 3.8008 8.47983 4.10077 7.3125 4.55273C6.72634 4.77972 6.31605 5.02836 6.06738 5.25684C5.82051 5.48379 5.79896 5.62415 5.79883 5.66895L5.7998 5.6709C5.7998 5.69038 5.80899 5.83993 6.14648 6.11035C6.46924 6.3689 6.97318 6.63502 7.63965 6.89355C8.84008 7.27622 10.3253 7.53807 12.0996 7.53809C13.8675 7.53807 15.3487 7.27788 16.5469 6.89746C17.2198 6.63734 17.7279 6.36863 18.0527 6.1084C18.3901 5.83802 18.3994 5.68843 18.3994 5.66895C18.3993 5.62416 18.3795 5.48371 18.1328 5.25684C17.8842 5.02826 17.4732 4.77984 16.8867 4.55273C15.7194 4.10075 14.0346 3.8008 12.0996 3.80078Z" fill="currentColor"/>
</svg>
