<svg width="24" height="24" viewBox="0 0 24 24" fill="none" xmlns="http://www.w3.org/2000/svg">
<path d="M8.10001 3C8.10001 2.50294 8.50295 2.1 9.00001 2.1H15C15.4971 2.1 15.9 2.50294 15.9 3C15.9 3.49706 15.4971 3.9 15 3.9H9.00001C8.50295 3.9 8.10001 3.49706 8.10001 3Z" fill="currentColor"/>
<path d="M10 15.9C9.50295 15.9 9.10001 15.4971 9.10001 15L9.10001 10C9.10001 9.50294 9.50295 9.1 10 9.1C10.4971 9.1 10.9 9.50294 10.9 10L10.9 15C10.9 15.4971 10.4971 15.9 10 15.9Z" fill="currentColor"/>
<path d="M13.1 15C13.1 15.4971 13.5029 15.9 14 15.9C14.4971 15.9 14.9 15.4971 14.9 15L14.9 10C14.9 9.50294 14.4971 9.1 14 9.1C13.5029 9.1 13.1 9.50294 13.1 10V15Z" fill="currentColor"/>
<path fill-rule="evenodd" clip-rule="evenodd" d="M2.10001 6C2.10001 5.50294 2.50295 5.1 3.00001 5.1H4.99152C4.99785 5.09993 5.00417 5.09993 5.01048 5.1H18.9895C18.9958 5.09993 19.0021 5.09993 19.0085 5.1H21C21.4971 5.1 21.9 5.50294 21.9 6C21.9 6.49706 21.4971 6.9 21 6.9H19.8281L18.8448 18.6993C18.7412 19.9432 17.7013 20.9 16.4531 20.9H7.54686C6.29865 20.9 5.25881 19.9432 5.15515 18.6993L4.17188 6.9H3.00001C2.50295 6.9 2.10001 6.49706 2.10001 6ZM5.97811 6.9L18.0219 6.9L17.0511 18.5498C17.0251 18.8608 16.7652 19.1 16.4531 19.1H7.54686C7.23481 19.1 6.97485 18.8608 6.94893 18.5498L5.97811 6.9Z" fill="currentColor"/>
</svg>
