<svg width="24" height="24" viewBox="0 0 24 24" fill="none" xmlns="http://www.w3.org/2000/svg">
<path d="M13.5004 3.1001C13.9972 3.10031 14.3998 3.50356 14.3998 4.00049C14.3995 4.49721 13.9971 4.89969 13.5004 4.8999H4.00037C3.94514 4.8999 3.89978 4.94526 3.89978 5.00049V16.0005C3.90002 16.0555 3.94528 16.1001 4.00037 16.1001H20.0004C20.0553 16.0999 20.0997 16.0554 20.1 16.0005V12.0005C20.1 11.5034 20.5033 11.1001 21.0004 11.1001C21.4972 11.1003 21.8998 11.5036 21.8998 12.0005V16.0005C21.8995 17.0495 21.0494 17.8997 20.0004 17.8999H12.8998V20.1001H17.0004C17.4972 20.1003 17.8998 20.5036 17.8998 21.0005C17.8995 21.4972 17.4971 21.8997 17.0004 21.8999H7.00037C6.50346 21.8999 6.10021 21.4973 6.09998 21.0005C6.09998 20.5034 6.50331 20.1001 7.00037 20.1001H11.1V17.8999H4.00037C2.95117 17.8999 2.10021 17.0496 2.09998 16.0005V5.00049C2.09998 3.95115 2.95103 3.1001 4.00037 3.1001H13.5004ZM19.098 2.1001C19.595 2.10015 19.9974 2.50347 19.9974 3.00049V6.32764L20.5443 5.78076C20.8957 5.4294 21.4653 5.42954 21.8168 5.78076C22.1682 6.13223 22.1682 6.70175 21.8168 7.05322L19.7347 9.13623C19.3843 9.48667 18.8161 9.48808 18.4642 9.13916L16.3656 7.05615C16.0129 6.70595 16.0115 6.13544 16.3617 5.78271C16.7119 5.4304 17.2816 5.42875 17.6342 5.77881L18.1976 6.33838V3.00049C18.1976 2.50343 18.601 2.1001 19.098 2.1001Z" fill="currentColor"/>
</svg>
