<svg width="24" height="24" viewBox="0 0 24 24" fill="none" xmlns="http://www.w3.org/2000/svg">
<path d="M10 5.1875C7.05286 6.05121 4.90039 8.77341 4.90039 12C4.90039 15.9212 8.07878 19.0996 12 19.0996C15.2265 19.0996 17.9477 16.947 18.8115 14H20.6719C19.764 17.9521 16.2274 20.9004 12 20.9004C7.08467 20.9004 3.09961 16.9153 3.09961 12C3.09961 7.77248 6.04784 4.23491 10 3.32715V5.1875Z" fill="currentColor"/>
<path fill-rule="evenodd" clip-rule="evenodd" d="M12 2.09961C17.4676 2.09961 21.9004 6.53238 21.9004 12C21.9004 12.4661 21.5457 12.8495 21.0918 12.8955L21 12.9004H12C11.5029 12.9004 11.0996 12.4971 11.0996 12V3C11.0996 2.50294 11.5029 2.09961 12 2.09961ZM12.9004 11.0996H20.0498C19.6346 7.34553 16.6545 4.36541 12.9004 3.9502V11.0996Z" fill="currentColor"/>
</svg>
