<svg width="24" height="24" viewBox="0 0 24 24" fill="none" xmlns="http://www.w3.org/2000/svg">
<path d="M7.85449 2.5C6.23654 2.50018 4.71412 3.46184 4.24121 4.99512L2.3623 11.0898C1.64444 13.4181 3.6464 15.4442 5.97559 15.4443H8.99707C8.68174 16.8762 8.69188 18.2473 9.30762 19.3271C9.92854 20.5481 11.0803 21.2996 12.0996 21.2998C12.1239 21.2998 12.1582 21.3006 12.1992 21.3018C12.3928 21.3073 12.7508 21.3182 13.0752 21.2539C13.5467 21.1604 14.0142 20.9208 14.4229 20.4336C14.8682 19.9025 14.9878 19.2594 15.0723 18.7803C15.0833 18.7175 15.0939 18.6554 15.1045 18.5938C15.1828 18.1391 15.2577 17.7078 15.4424 17.2178C15.7237 16.4714 16.2587 15.9785 16.8135 15.6924C17.4086 15.3857 17.9805 14.7495 17.9805 13.8887V5.3457C17.9802 3.77402 16.7055 2.5 15.1338 2.5H7.85449ZM15.1338 4.2998C15.7114 4.2998 16.1804 4.76814 16.1807 5.3457V13.8887C16.1807 13.896 16.1787 13.9189 16.1504 13.959C16.1197 14.0022 16.0653 14.0526 15.9893 14.0918C15.1092 14.5454 14.2225 15.3501 13.7578 16.583C13.5087 17.2442 13.4059 17.846 13.3291 18.2969C13.3189 18.3565 13.3094 18.4136 13.2998 18.4678C13.2099 18.9777 13.1424 19.1599 13.0439 19.2773C12.9089 19.4384 12.8096 19.4716 12.7256 19.4883C12.6665 19.5 12.5928 19.5055 12.4873 19.5059C12.4342 19.506 12.3792 19.5055 12.3135 19.5039L12.3018 19.5029C12.2421 19.5015 12.1706 19.5 12.0996 19.5C11.8965 19.4997 11.2871 19.2607 10.9053 18.4971C10.8969 18.4803 10.8874 18.4635 10.8779 18.4473C10.4854 17.7717 10.4635 16.5729 11.0332 14.8232C11.1224 14.5492 11.0746 14.2488 10.9053 14.0156C10.736 13.7826 10.4658 13.6446 10.1777 13.6445H5.97559C4.54066 13.6444 3.80947 12.5041 4.08203 11.6201L5.96094 5.52539C6.16555 4.86224 6.89859 4.29998 7.85449 4.2998H15.1338ZM20.0996 3C19.6027 3.00021 19.2002 3.40346 19.2002 3.90039V13.9004C19.2004 14.3972 19.6029 14.7996 20.0996 14.7998C20.5965 14.7998 20.9998 14.3973 21 13.9004V3.90039C21 3.40333 20.5967 3 20.0996 3Z" fill="currentColor"/>
</svg>
