<svg width="24" height="24" viewBox="0 0 24 24" fill="none" xmlns="http://www.w3.org/2000/svg">
<g clip-path="url(#clip0_5601_2151)">
<path fill-rule="evenodd" clip-rule="evenodd" d="M13.1719 2.09961C13.9408 2.09969 14.6789 2.40555 15.2227 2.94922L19.0508 6.77734C19.5946 7.32113 19.9003 8.05911 19.9004 8.82812V18C19.9004 20.1539 18.1539 21.9004 16 21.9004H8C5.84626 21.9002 4.09961 20.1538 4.09961 18V6C4.09961 3.84621 5.84626 2.09981 8 2.09961H13.1719ZM8 3.90039C6.84037 3.90059 5.90039 4.84032 5.90039 6V18C5.90039 19.1597 6.84037 20.0994 8 20.0996H16C17.1598 20.0996 18.0996 19.1598 18.0996 18V9.90039H15C13.3985 9.90019 12.0996 8.6015 12.0996 7V3.90039H8ZM13.9004 7C13.9004 7.60739 14.3927 8.09941 15 8.09961H17.8213C17.8068 8.08333 17.7928 8.06626 17.7773 8.05078L13.9492 4.22266C13.9335 4.20696 13.9169 4.19237 13.9004 4.17773V7Z" fill="currentColor"/>
<path fill-rule="evenodd" clip-rule="evenodd" d="M16.1368 12.2636C16.4882 12.6151 16.4882 13.1849 16.1368 13.5364L12.6974 16.9757C11.7602 17.913 10.2406 17.913 9.30332 16.9757L7.86398 15.5364C7.5125 15.1849 7.5125 14.6151 7.86398 14.2636C8.21545 13.9121 8.7853 13.9121 9.13677 14.2636L10.5761 15.7029C10.8104 15.9373 11.1903 15.9373 11.4246 15.7029L14.864 12.2636C15.2154 11.9121 15.7853 11.9121 16.1368 12.2636Z" fill="currentColor"/>
</g>
<defs>
<clipPath id="clip0_5601_2151">
<rect width="24" height="24" fill="white"/>
</clipPath>
</defs>
</svg>
