<svg width="24" height="24" viewBox="0 0 24 24" fill="none" xmlns="http://www.w3.org/2000/svg">
<path d="M15.4795 15.4971C15.9765 15.4971 16.3799 15.9004 16.3799 16.3975C16.3799 16.8945 15.9765 17.2978 15.4795 17.2979H8.52051C8.02345 17.2979 7.62012 16.8945 7.62012 16.3975C7.62012 15.9004 8.02345 15.4971 8.52051 15.4971H15.4795Z" fill="currentColor"/>
<path d="M12.3359 11.0996C12.8329 11.0997 13.2354 11.503 13.2354 12C13.2354 12.497 12.8329 12.9003 12.3359 12.9004H8.52051C8.02345 12.9004 7.62012 12.4971 7.62012 12C7.62012 11.5029 8.02345 11.0996 8.52051 11.0996H12.3359Z" fill="currentColor"/>
<path fill-rule="evenodd" clip-rule="evenodd" d="M13.1719 2.09961C13.9408 2.09969 14.6789 2.40555 15.2227 2.94922L19.0508 6.77734C19.5946 7.32113 19.9003 8.05911 19.9004 8.82812V18C19.9004 20.1539 18.1539 21.9004 16 21.9004H8C5.84626 21.9002 4.09961 20.1538 4.09961 18V6C4.09961 3.84621 5.84626 2.09981 8 2.09961H13.1719ZM8 3.90039C6.84037 3.90059 5.90039 4.84032 5.90039 6V18C5.90039 19.1597 6.84037 20.0994 8 20.0996H16C17.1598 20.0996 18.0996 19.1598 18.0996 18V9.90039H15C13.3985 9.90019 12.0996 8.6015 12.0996 7V3.90039H8ZM13.9004 7C13.9004 7.60739 14.3927 8.09941 15 8.09961H17.8213C17.8068 8.08333 17.7928 8.06626 17.7773 8.05078L13.9492 4.22266C13.9335 4.20696 13.9169 4.19237 13.9004 4.17773V7Z" fill="currentColor"/>
</svg>
