<svg width="24" height="24" viewBox="0 0 24 24" fill="none" xmlns="http://www.w3.org/2000/svg">
<path fill-rule="evenodd" clip-rule="evenodd" d="M12 2.90002C12.4971 2.90002 12.9 3.30297 12.9 3.80002V12.2939L15.8081 9.38585C16.1595 9.03438 16.7294 9.03438 17.0808 9.38585C17.4323 9.73732 17.4323 10.3072 17.0808 10.6586L12.6364 15.1031C12.4676 15.2719 12.2387 15.3667 12 15.3667C11.7613 15.3667 11.5324 15.2719 11.3636 15.1031L6.91917 10.6586C6.5677 10.3072 6.5677 9.73732 6.91917 9.38585C7.27064 9.03438 7.84049 9.03438 8.19196 9.38585L11.1 12.2939V3.80002C11.1 3.30297 11.503 2.90002 12 2.90002ZM4.00001 13.5874C4.49706 13.5874 4.90001 13.9903 4.90001 14.4874V18.043C4.90001 18.2758 4.99249 18.499 5.1571 18.6636C5.32172 18.8282 5.54498 18.9207 5.77778 18.9207H18.2222C18.455 18.9207 18.6783 18.8283 18.8429 18.6636C19.0075 18.499 19.1 18.2758 19.1 18.043V14.4874C19.1 13.9903 19.5029 13.5874 20 13.5874C20.4971 13.5874 20.9 13.9903 20.9 14.4874V18.043C20.9 18.7531 20.6179 19.4342 20.1157 19.9364C19.6135 20.4386 18.9324 20.7207 18.2222 20.7207H5.77778C5.06759 20.7207 4.38649 20.4386 3.88431 19.9364C3.38213 19.4342 3.10001 18.7531 3.10001 18.043V14.4874C3.10001 13.9903 3.50295 13.5874 4.00001 13.5874Z" fill="currentColor"/>
</svg>
