<svg width="24" height="24" viewBox="0 0 24 24" fill="none" xmlns="http://www.w3.org/2000/svg">
<path d="M18.0179 3.09998C18.3963 3.10003 18.7709 3.17491 19.1205 3.31971C19.4701 3.46454 19.7884 3.67614 20.056 3.94373C20.3237 4.21144 20.5362 4.52965 20.681 4.87928C20.8258 5.22887 20.8997 5.60423 20.8997 5.9828C20.8997 6.36118 20.8257 6.73591 20.681 7.08533C20.5362 7.43497 20.3237 7.75317 20.056 8.02088L17.639 10.4379L9.15756 18.9183C8.5296 19.5463 7.74274 19.992 6.8812 20.2074L4.21811 20.8734C3.91148 20.95 3.5871 20.8596 3.36362 20.6361C3.14017 20.4126 3.05063 20.0883 3.12729 19.7816L3.79233 17.1185C4.00771 16.257 4.45344 15.4701 5.08139 14.8422L15.9798 3.94373C16.5203 3.40346 17.2536 3.09998 18.0179 3.09998ZM19.0003 19.1C19.4972 19.1002 19.8997 19.5034 19.8997 20.0004C19.8995 20.4971 19.4971 20.8996 19.0003 20.8998H12.0003C11.5034 20.8998 11.1001 20.4973 11.0999 20.0004C11.0999 19.5033 11.5033 19.1 12.0003 19.1H19.0003ZM18.0179 4.89979C17.7309 4.89979 17.4553 5.01417 17.2523 5.21717L6.35385 16.1146C5.95661 16.5119 5.67469 17.01 5.53842 17.5551L5.23666 18.7631L6.44467 18.4613C6.98971 18.3251 7.48782 18.0431 7.8851 17.6459L18.7826 6.74744C18.883 6.64702 18.9635 6.52821 19.0179 6.39686C19.0723 6.26558 19.0999 6.1247 19.0999 5.9828C19.0999 5.84075 19.0723 5.69916 19.0179 5.56776C18.9635 5.43645 18.883 5.31757 18.7826 5.21717C18.6821 5.11678 18.5631 5.03716 18.432 4.9828C18.3008 4.92845 18.16 4.89983 18.0179 4.89979Z" fill="currentColor"/>
</svg>
