<svg width="24" height="24" viewBox="0 0 24 24" fill="none" xmlns="http://www.w3.org/2000/svg">
<path fill-rule="evenodd" clip-rule="evenodd" d="M2.10001 11.98C2.10001 11.7413 2.19483 11.5123 2.36361 11.3436L6.84353 6.86364C7.195 6.51217 7.76485 6.51217 8.11632 6.86364C8.46779 7.21511 8.46779 7.78496 8.11632 8.13643L5.1728 11.08H16.5C17.6598 11.08 18.6 10.1398 18.6 8.97995V6.44149C18.6 5.94444 19.0029 5.54149 19.5 5.54149C19.9971 5.54149 20.4 5.94444 20.4 6.44149V8.97995C20.4 11.1339 18.6539 12.88 16.5 12.88H5.1728L8.11632 15.8235C8.46779 16.1749 8.46779 16.7448 8.11632 17.0963C7.76485 17.4477 7.195 17.4477 6.84353 17.0963L2.36361 12.6164C2.19483 12.4476 2.10001 12.2186 2.10001 11.98Z" fill="currentColor"/>
</svg>
