<svg width="24" height="24" viewBox="0 0 24 24" fill="none" xmlns="http://www.w3.org/2000/svg">
<path d="M11 2H13V3H11V2Z" fill="currentColor" fill-opacity="0.45"/>
<path d="M10 3H11V4H10V3Z" fill="currentColor" fill-opacity="0.45"/>
<path d="M9 4H10V6H9V4Z" fill="currentColor" fill-opacity="0.45"/>
<path d="M8 6H9V8H8V6Z" fill="currentColor" fill-opacity="0.45"/>
<path d="M11.5 7H12.5V14H11.5V7Z" fill="currentColor" fill-opacity="0.45"/>
<path d="M11.5 16H12.5V18H11.5V16Z" fill="currentColor" fill-opacity="0.45"/>
<path d="M11.5 16.5V17.5H11V16.5H11.5Z" fill="currentColor" fill-opacity="0.45"/>
<path d="M13 16.5V17.5H12.5V16.5H13Z" fill="currentColor" fill-opacity="0.45"/>
<path d="M7 8H8V10H7V8Z" fill="currentColor" fill-opacity="0.45"/>
<path d="M6 10H7V12H6V10Z" fill="currentColor" fill-opacity="0.45"/>
<path d="M5 12H6V14H5V12Z" fill="currentColor" fill-opacity="0.45"/>
<path d="M18 12H19V14H18V12Z" fill="currentColor" fill-opacity="0.45"/>
<path d="M19 14H20V16H19V14Z" fill="currentColor" fill-opacity="0.45"/>
<path d="M4 14H5V16H4V14Z" fill="currentColor" fill-opacity="0.45"/>
<path d="M3 16H4V18H3V16Z" fill="currentColor" fill-opacity="0.45"/>
<path d="M2 18H3V19H2V18Z" fill="currentColor" fill-opacity="0.45"/>
<path d="M3 19H4V20H3V19Z" fill="currentColor" fill-opacity="0.45"/>
<path d="M20 19H21V20H20V19Z" fill="currentColor" fill-opacity="0.45"/>
<path d="M21 18H22V19H21V18Z" fill="currentColor" fill-opacity="0.45"/>
<path d="M4 20H20V21H4V20Z" fill="currentColor" fill-opacity="0.45"/>
<path d="M20 16H21V18H20V16Z" fill="currentColor" fill-opacity="0.45"/>
<path d="M14 4H15V6H14V4Z" fill="currentColor" fill-opacity="0.45"/>
<path d="M15 6H16V8H15V6Z" fill="currentColor" fill-opacity="0.45"/>
<path d="M16 8H17V10H16V8Z" fill="currentColor" fill-opacity="0.45"/>
<path d="M17 10H18V12H17V10Z" fill="currentColor" fill-opacity="0.45"/>
<path d="M13 3H14V4H13V3Z" fill="currentColor" fill-opacity="0.45"/>
</svg>
