<svg width="24" height="24" viewBox="0 0 24 24" fill="none" xmlns="http://www.w3.org/2000/svg">
<path d="M11.0996 7.32609C11.0996 6.86985 11.5026 6.5 11.9996 6.5C12.4967 6.5 12.8996 6.86985 12.8996 7.32609V13.6739C12.8996 14.1301 12.4967 14.5 11.9996 14.5C11.5026 14.5 11.0996 14.1301 11.0996 13.6739V7.32609Z" fill="currentColor"/>
<path d="M11.9992 17.501C12.4968 17.501 12.8996 17.0974 12.8996 16.6006C12.8996 16.1038 12.4968 15.7002 11.9992 15.7002C11.5024 15.7002 11.0996 16.1038 11.0996 16.6006C11.0996 17.0974 11.5024 17.501 11.9992 17.501Z" fill="currentColor"/>
<path d="M22 12C22 17.5228 17.5228 22 12 22C6.47715 22 2 17.5228 2 12C2 6.47715 6.47715 2 12 2C17.5228 2 22 6.47715 22 12ZM20.2 12C20.2 7.47126 16.5287 3.8 12 3.8C7.47126 3.8 3.8 7.47126 3.8 12C3.8 16.5287 7.47126 20.2 12 20.2C16.5287 20.2 20.2 16.5287 20.2 12Z" fill="currentColor"/>
</svg>
