<svg width="24" height="24" viewBox="0 0 24 24" fill="none" xmlns="http://www.w3.org/2000/svg">
<path d="M5 11.0996C5.49693 11.0996 5.90018 11.5031 5.90039 12V18C5.90039 18.0552 5.94477 18.0996 6 18.0996H12C12.4969 18.0996 12.9002 18.5031 12.9004 19C12.9004 19.4971 12.4971 19.9004 12 19.9004H6C4.95066 19.9004 4.09961 19.0493 4.09961 18V12C4.09982 11.5031 4.50307 11.0996 5 11.0996ZM18 4.09961C19.0492 4.09961 19.9002 4.95084 19.9004 6V12C19.9004 12.4971 19.4971 12.9004 19 12.9004C18.5029 12.9004 18.0996 12.4971 18.0996 12V6C18.0994 5.94495 18.0551 5.90039 18 5.90039H12C11.5029 5.90039 11.0996 5.49706 11.0996 5C11.0998 4.50312 11.5031 4.09961 12 4.09961H18Z" fill="currentColor"/>
</svg>
