<svg width="24" height="24" viewBox="0 0 24 24" fill="none" xmlns="http://www.w3.org/2000/svg">
<path fill-rule="evenodd" clip-rule="evenodd" d="M6.00001 4.9001C5.70827 4.9001 5.42848 5.01599 5.22219 5.22228C5.0159 5.42857 4.90001 5.70836 4.90001 6.0001V8.0001C4.90001 8.49715 4.49706 8.9001 4.00001 8.9001C3.50295 8.9001 3.10001 8.49715 3.10001 8.0001V6.0001C3.10001 5.23097 3.40554 4.49334 3.9494 3.94949C4.49325 3.40563 5.23088 3.1001 6.00001 3.1001H8.00001C8.49706 3.1001 8.90001 3.50304 8.90001 4.0001C8.90001 4.49715 8.49706 4.9001 8.00001 4.9001H6.00001Z" fill="currentColor"/>
<path fill-rule="evenodd" clip-rule="evenodd" d="M15.1 4.0001C15.1 3.50304 15.5029 3.1001 16 3.1001H18C18.7691 3.1001 19.5068 3.40563 20.0506 3.94949C20.5945 4.49334 20.9 5.23097 20.9 6.0001V8.0001C20.9 8.49715 20.4971 8.9001 20 8.9001C19.5029 8.9001 19.1 8.49715 19.1 8.0001V6.0001C19.1 5.70836 18.9841 5.42857 18.7778 5.22228C18.5715 5.01599 18.2917 4.9001 18 4.9001H16C15.5029 4.9001 15.1 4.49715 15.1 4.0001Z" fill="currentColor"/>
<path fill-rule="evenodd" clip-rule="evenodd" d="M20 15.1001C20.4971 15.1001 20.9 15.503 20.9 16.0001V18.0001C20.9 18.7692 20.5945 19.5069 20.0506 20.0507C19.5068 20.5946 18.7691 20.9001 18 20.9001H16C15.5029 20.9001 15.1 20.4972 15.1 20.0001C15.1 19.503 15.5029 19.1001 16 19.1001H18C18.2917 19.1001 18.5715 18.9842 18.7778 18.7779C18.9841 18.5716 19.1 18.2918 19.1 18.0001V16.0001C19.1 15.503 19.5029 15.1001 20 15.1001Z" fill="currentColor"/>
<path fill-rule="evenodd" clip-rule="evenodd" d="M4.00001 15.1001C4.49706 15.1001 4.90001 15.503 4.90001 16.0001V18.0001C4.90001 18.2918 5.0159 18.5716 5.22219 18.7779C5.42848 18.9842 5.70827 19.1001 6.00001 19.1001H8.00001C8.49706 19.1001 8.90001 19.503 8.90001 20.0001C8.90001 20.4972 8.49706 20.9001 8.00001 20.9001H6.00001C5.23088 20.9001 4.49325 20.5946 3.9494 20.0507C3.40554 19.5069 3.10001 18.7692 3.10001 18.0001V16.0001C3.10001 15.503 3.50295 15.1001 4.00001 15.1001Z" fill="currentColor"/>
</svg>
