<svg width="24" height="24" viewBox="0 0 24 24" fill="none" xmlns="http://www.w3.org/2000/svg">
<g clip-path="url(#clip0_6806_2892)">
<g clip-path="url(#clip1_6806_2892)">
<path d="M19.0015 10.0512C17.9723 6.21026 14.0243 3.93087 10.1833 4.96005L10.4858 6.08893C10.6703 6.77737 9.93033 7.34517 9.31309 6.98881L6.77954 5.52606C6.39691 5.30515 6.26581 4.81588 6.48672 4.43324L7.94946 1.8997C8.30583 1.28246 9.23056 1.40421 9.41503 2.09265L9.71747 3.22138C14.5187 1.9349 19.4537 4.78415 20.7402 9.58534C22.0266 14.3865 19.1774 19.3216 14.3762 20.608C9.57501 21.8945 4.63998 19.0453 3.35351 14.2441C2.92991 12.6632 2.95483 11.0651 3.35137 9.5881C3.48025 9.10804 3.97389 8.82335 4.45395 8.95223C4.934 9.08111 5.21869 9.57475 5.08981 10.0548C4.77308 11.2346 4.7526 12.5109 5.09217 13.7782C6.12135 17.6192 10.0694 19.8986 13.9103 18.8694C17.7513 17.8402 20.0307 13.8922 19.0015 10.0512Z" fill="currentColor"/>
</g>
<path fill-rule="evenodd" clip-rule="evenodd" d="M7.5437 10.552L8.58281 9.78899V15.8163H10.0058V8.12354H8.70879L7.5437 8.97343V10.552Z" fill="currentColor"/>
<path fill-rule="evenodd" clip-rule="evenodd" d="M12.0415 8.12354V12.453H13.3276L13.3809 12.3564C13.4943 12.1511 13.6133 12.0249 13.7308 11.957C13.8583 11.8868 14.0005 11.8506 14.161 11.8506C14.3553 11.8506 14.5059 11.8776 14.6194 11.9238C14.7307 11.982 14.8088 12.0552 14.8613 12.1417C14.9776 12.3654 15.0396 12.6696 15.0333 13.0663V13.0693C15.0333 13.2364 15.03 13.4087 15.0235 13.586C15.0111 13.7523 14.9779 13.9037 14.9251 14.0415L14.924 14.0448C14.8811 14.1632 14.8066 14.2588 14.6945 14.3346C14.5845 14.4077 14.4243 14.4534 14.1973 14.4535C13.9345 14.4504 13.7458 14.3855 13.6126 14.2771C13.4796 14.1689 13.3809 14.0005 13.3302 13.75L13.2999 13.6002H11.881L11.913 13.8147C12.0184 14.5206 12.2961 15.0607 12.7672 15.3999C13.2098 15.7165 13.7011 15.8765 14.2363 15.8766L14.2397 15.8765C14.6343 15.8693 14.9852 15.7777 15.2854 15.5944C15.572 15.4298 15.8011 15.2423 15.9637 15.0282C16.1437 14.8141 16.2721 14.5687 16.349 14.2943L16.3497 14.2915C16.4228 14.0139 16.4563 13.6302 16.4563 13.1496C16.4563 12.8382 16.4461 12.5722 16.4253 12.3535C16.4043 12.1371 16.3689 11.9472 16.3166 11.7865L16.3157 11.784C16.2163 11.493 16.0542 11.2368 15.8318 11.017C15.6756 10.8467 15.4766 10.707 15.2396 10.5957L15.2294 10.5916C14.9722 10.4887 14.6922 10.4348 14.3914 10.4276H14.3869C14.0314 10.4276 13.703 10.5087 13.4042 10.6702V9.54652H16.3157V8.12354H12.0415Z" fill="currentColor"/>
</g>
<defs>
<clipPath id="clip0_6806_2892">
<rect width="24" height="24" fill="white"/>
</clipPath>
<clipPath id="clip1_6806_2892">
<rect width="24" height="24" fill="white" transform="matrix(-1 0 0 1 24 0)"/>
</clipPath>
</defs>
</svg>
