<svg width="24" height="24" viewBox="0 0 24 24" fill="none" xmlns="http://www.w3.org/2000/svg">
<path d="M19.1964 9.37793C20.7432 9.7925 21.6615 11.3828 21.2472 12.9297L19.6945 18.7256C19.28 20.2726 17.6888 21.1908 16.1418 20.7764L11.2316 19.46L14.3244 18.6318C14.4413 18.6005 14.5538 18.5599 14.6632 18.5156L16.6086 19.0371C17.1952 19.194 17.798 18.8464 17.9552 18.2598L19.508 12.4639C19.665 11.8773 19.3171 11.2746 18.7306 11.1172L15.05 10.1309L14.5119 8.12207L19.1964 9.37793Z" fill="currentColor"/>
<path fill-rule="evenodd" clip-rule="evenodd" d="M10.1789 6.60059C11.7256 6.18648 13.3159 7.1048 13.7306 8.65137L15.2834 14.4473C15.6979 15.9943 14.7795 17.5844 13.2326 17.999L7.43668 19.5527C5.8898 19.9669 4.29941 19.0478 3.88492 17.501L2.33219 11.7061C1.91782 10.1591 2.836 8.56783 4.38297 8.15332L10.1789 6.60059ZM11.9914 9.11816C11.8341 8.53162 11.2313 8.18287 10.6447 8.33984L4.84879 9.89355C4.26222 10.0509 3.9144 10.6536 4.07145 11.2402L5.62418 17.0352C5.78141 17.6219 6.38408 17.9697 6.97086 17.8125L12.7668 16.2598C13.3534 16.1024 13.7013 15.4998 13.5441 14.9131L11.9914 9.11816Z" fill="currentColor"/>
<path d="M15.0002 3.5293C16.6017 3.52938 17.9005 4.82909 17.9005 6.43066V8.0918L16.0998 7.60938V6.43066C16.0998 5.8232 15.6076 5.33114 15.0002 5.33105H9.00016C8.44441 5.33105 7.98648 5.74306 7.91227 6.27832L6.09977 6.76367V6.43066C6.09977 4.82904 7.39853 3.5293 9.00016 3.5293H15.0002Z" fill="currentColor"/>
</svg>
