<svg width="24" height="24" viewBox="0 0 24 24" fill="none" xmlns="http://www.w3.org/2000/svg">
<path d="M4 3.33203C4.55224 3.33203 4.99993 3.7798 5 4.33203V18.0908H20.0674C20.6195 18.0908 21.0671 18.5388 21.0674 19.0908C21.0674 19.6431 20.6197 20.0908 20.0674 20.0908H5C3.89543 20.0908 3 19.1954 3 18.0908V4.33203C3.00007 3.7798 3.44776 3.33203 4 3.33203ZM8.19922 9.28418C8.7515 9.28418 9.19922 9.73189 9.19922 10.2842V15.6045C9.19908 16.1567 8.75142 16.6045 8.19922 16.6045C7.64719 16.6043 7.19936 16.1565 7.19922 15.6045V10.2842C7.19922 9.73202 7.6471 9.28438 8.19922 9.28418ZM17.2227 6.85645C17.7748 6.85658 18.2226 7.3043 18.2227 7.85645V15.6045C18.2225 16.1566 17.7747 16.6044 17.2227 16.6045C16.6705 16.6045 16.2228 16.1566 16.2227 15.6045V7.85645C16.2227 7.30422 16.6704 6.85645 17.2227 6.85645ZM12.7109 3.96387C13.2631 3.96387 13.7107 4.41175 13.7109 4.96387V15.6035C13.7109 16.1558 13.2632 16.6035 12.7109 16.6035C12.1587 16.6035 11.7109 16.1558 11.7109 15.6035V4.96387C11.7111 4.41175 12.1588 3.96387 12.7109 3.96387Z" fill="currentColor"/>
</svg>
