<svg width="24" height="24" viewBox="0 0 24 24" fill="none" xmlns="http://www.w3.org/2000/svg">
<path d="M11.8999 6.79965C12.397 6.79965 12.7997 7.20235 12.7997 7.69941V11.7266L14.7359 13.6629C15.0873 14.0143 15.0879 14.584 14.7366 14.9355C14.3852 15.287 13.8148 15.287 13.4633 14.9355L11.2632 12.7355C11.0947 12.5668 11.0002 12.338 11.0001 12.0995V7.69941C11.0001 7.20238 11.4029 6.7997 11.8999 6.79965Z" fill="currentColor"/>
<path fill-rule="evenodd" clip-rule="evenodd" d="M12 1.89893C17.4677 1.89893 21.9001 6.33147 21.9002 11.7991C21.9002 17.2669 17.4678 21.6993 12 21.6993C6.53228 21.6993 2.09985 17.2669 2.09985 11.7991C2.09998 6.33147 6.53236 1.89893 12 1.89893ZM20.1 11.7998C20.1 7.32616 16.4737 3.69984 12 3.69984C7.5264 3.69984 3.90008 7.32616 3.90008 11.7998C3.90032 16.2732 7.52655 19.8998 12 19.8998C16.4735 19.8998 20.0998 16.2732 20.1 11.7998Z" fill="currentColor"/>
</svg>
