<svg width="24" height="24" viewBox="0 0 24 24" fill="none" xmlns="http://www.w3.org/2000/svg">
<path d="M8.00916 7.50488C8.47326 7.50488 8.91828 7.68943 9.24646 8.01758C9.57465 8.34577 9.75916 8.79075 9.75916 9.25488C9.75916 9.71901 9.57465 10.164 9.24646 10.4922C8.91828 10.8203 8.47326 11.0049 8.00916 11.0049C7.54507 11.0049 7.10001 10.8203 6.77185 10.4922C6.4437 10.164 6.25916 9.71898 6.25916 9.25488C6.25916 8.79078 6.4437 8.34576 6.77185 8.01758C7.10001 7.68942 7.54507 7.50492 8.00916 7.50488Z" fill="currentColor"/>
<path fill-rule="evenodd" clip-rule="evenodd" d="M17.8998 4.09961C20.0537 4.09961 21.8002 5.84609 21.8002 8V16C21.8002 18.1539 20.0537 19.9004 17.8998 19.9004H5.89978C3.74598 19.9003 1.99939 18.1538 1.99939 16V8C1.99939 5.84617 3.74598 4.09974 5.89978 4.09961H17.8998ZM15.4867 12.2539C15.448 12.2184 15.3885 12.2192 15.351 12.2559L11.7338 15.8027C11.0146 16.5079 9.87305 16.5222 9.13708 15.835L6.98669 13.8262C6.95049 13.7924 6.89516 13.791 6.85681 13.8223L3.82361 16.2988C3.96873 17.3168 4.84165 18.0995 5.89978 18.0996H17.8998C18.9375 18.0996 19.7964 17.3466 19.9662 16.3574L15.4867 12.2539ZM5.89978 5.90039C4.74009 5.90052 3.80017 6.84028 3.80017 8V14.002L5.73181 12.4238C6.46046 11.8286 7.51253 11.8634 8.20056 12.5059L10.351 14.5146C10.3897 14.5508 10.4498 14.5497 10.4877 14.5127L14.1049 10.9658C14.819 10.2656 15.9506 10.2466 16.6879 10.9219L19.9994 13.9551V8C19.9994 6.8402 19.0596 5.90039 17.8998 5.90039H5.89978Z" fill="currentColor"/>
</svg>
