<svg width="24" height="24" viewBox="0 0 24 24" fill="none" xmlns="http://www.w3.org/2000/svg">
<path fill-rule="evenodd" clip-rule="evenodd" d="M2.09998 11.9799C2.09998 11.7412 2.1948 11.5123 2.36358 11.3435L6.86358 6.84351C7.21505 6.49204 7.7849 6.49204 8.13637 6.84351C8.48784 7.19498 8.48784 7.76483 8.13637 8.1163L5.17277 11.0799H21C21.497 11.0799 21.9 11.4828 21.9 11.9799C21.9 12.477 21.497 12.8799 21 12.8799H5.17277L8.13637 15.8435C8.48784 16.195 8.48784 16.7648 8.13637 17.1163C7.7849 17.4678 7.21505 17.4678 6.86358 17.1163L2.36358 12.6163C2.1948 12.4475 2.09998 12.2186 2.09998 11.9799Z" fill="currentColor"/>
<path fill-rule="evenodd" clip-rule="evenodd" d="M15.8636 6.80505C16.215 6.45358 16.7849 6.45357 17.1364 6.80505L21.6748 11.3435C21.8436 11.5123 21.9384 11.7412 21.9384 11.9799C21.9384 12.2186 21.8436 12.4475 21.6748 12.6163L17.1364 17.1548C16.7849 17.5062 16.215 17.5062 15.8636 17.1548C15.5121 16.8033 15.5121 16.2334 15.8636 15.882L19.7656 11.9799L15.8636 8.07784C15.5121 7.72637 15.5121 7.15652 15.8636 6.80505Z" fill="currentColor"/>
</svg>
