<svg width="24" height="24" viewBox="0 0 24 24" fill="none" xmlns="http://www.w3.org/2000/svg">
<g clip-path="url(#clip0_4395_2246)">
<path d="M12.9 1.7999C12.9 1.30285 12.4971 0.899902 12 0.899902C11.5029 0.899902 11.1 1.30285 11.1 1.7999V2.7999C11.1 3.29696 11.5029 3.6999 12 3.6999C12.4971 3.6999 12.9 3.29696 12.9 2.7999V1.7999Z" fill="currentColor"/>
<path fill-rule="evenodd" clip-rule="evenodd" d="M6.1 11.9999C6.1 8.7414 8.74152 6.09988 12 6.09988C15.2585 6.09988 17.9 8.7414 17.9 11.9999C17.9 15.2584 15.2585 17.8999 12 17.8999C8.74152 17.8999 6.1 15.2584 6.1 11.9999ZM12 7.89988C9.73563 7.89988 7.9 9.73551 7.9 11.9999C7.9 14.2642 9.73563 16.0999 12 16.0999C14.2644 16.0999 16.1 14.2642 16.1 11.9999C16.1 9.73551 14.2644 7.89988 12 7.89988Z" fill="currentColor"/>
<path d="M0.899994 11.9999C0.899994 11.5028 1.30294 11.0999 1.79999 11.0999H2.79999C3.29705 11.0999 3.69999 11.5028 3.69999 11.9999C3.69999 12.4969 3.29705 12.8999 2.79999 12.8999H1.79999C1.30294 12.8999 0.899994 12.4969 0.899994 11.9999Z" fill="currentColor"/>
<path d="M12 20.2991C12.4971 20.2991 12.9 20.702 12.9 21.1991V22.1991C12.9 22.6961 12.4971 23.0991 12 23.0991C11.5029 23.0991 11.1 22.6961 11.1 22.1991V21.1991C11.1 20.702 11.5029 20.2991 12 20.2991Z" fill="currentColor"/>
<path d="M21.2016 11.0999C20.7045 11.0999 20.3016 11.5028 20.3016 11.9999C20.3016 12.4969 20.7045 12.8999 21.2016 12.8999H22.2016C22.6986 12.8999 23.1016 12.4969 23.1016 11.9999C23.1016 11.5028 22.6986 11.0999 22.2016 11.0999H21.2016Z" fill="currentColor"/>
<path d="M20.1995 3.79903C20.551 4.1505 20.551 4.72035 20.1995 5.07182L19.4924 5.77893C19.141 6.1304 18.5711 6.1304 18.2196 5.77893C17.8682 5.42746 17.8682 4.85761 18.2196 4.50614L18.9268 3.79903C19.2782 3.44756 19.8481 3.44756 20.1995 3.79903Z" fill="currentColor"/>
<path d="M19.4942 18.2215C19.1427 17.87 18.5729 17.87 18.2214 18.2215C17.87 18.573 17.87 19.1428 18.2214 19.4943L18.9285 20.2014C19.28 20.5529 19.8498 20.5529 20.2013 20.2014C20.5528 19.8499 20.5528 19.2801 20.2013 18.9286L19.4942 18.2215Z" fill="currentColor"/>
<path d="M5.78079 18.2213C6.13227 18.5727 6.13227 19.1426 5.78079 19.4941L5.07369 20.2012C4.72222 20.5526 4.15237 20.5526 3.8009 20.2012C3.44942 19.8497 3.44942 19.2798 3.8009 18.9284L4.508 18.2213C4.85947 17.8698 5.42932 17.8698 5.78079 18.2213Z" fill="currentColor"/>
<path d="M5.07077 3.79912C4.7193 3.44764 4.14945 3.44764 3.79798 3.79912C3.4465 4.15059 3.4465 4.72044 3.79798 5.07191L4.50508 5.77901C4.85655 6.13049 5.4264 6.13049 5.77787 5.77902C6.12935 5.42754 6.12935 4.85769 5.77787 4.50622L5.07077 3.79912Z" fill="currentColor"/>
</g>
<defs>
<clipPath id="clip0_4395_2246">
<rect width="24" height="24" fill="white"/>
</clipPath>
</defs>
</svg>
