<svg width="24" height="24" viewBox="0 0 24 24" fill="none" xmlns="http://www.w3.org/2000/svg">
<path d="M11.8008 2.20386C11.8418 2.20504 11.8761 2.20679 11.9004 2.20679C12.9196 2.20697 14.0714 2.95768 14.6924 4.17847C15.3083 5.25838 15.3183 6.6302 15.0029 8.06226H18.0244C20.3536 8.06238 22.3556 10.0885 21.6377 12.4167L19.7588 18.5105C19.286 20.0439 17.7636 21.0064 16.1455 21.0066H8.86621C7.29432 21.0066 6.01953 19.7318 6.01953 18.1599V9.61792C6.01953 8.75706 6.59143 8.12094 7.18652 7.81421C7.74138 7.52813 8.27631 7.03526 8.55762 6.28882C8.7423 5.79875 8.81718 5.36749 8.89551 4.91284C8.90613 4.85121 8.91669 4.78901 8.92773 4.72632C9.01218 4.24725 9.13189 3.60409 9.57715 3.073C9.98574 2.58579 10.4533 2.34616 10.9248 2.25269C11.2492 2.18839 11.6072 2.19827 11.8008 2.20386ZM3.90039 8.70679C4.39721 8.707 4.79972 9.10935 4.7998 9.6062V19.6062C4.7998 20.1031 4.39727 20.5064 3.90039 20.5066C3.40333 20.5066 3 20.1033 3 19.6062V9.6062C3.00009 9.10922 3.40339 8.70679 3.90039 8.70679ZM11.5127 3.99976C11.4072 4.00007 11.3335 4.0066 11.2744 4.01831C11.1904 4.03501 11.0911 4.0682 10.9561 4.22925C10.8577 4.34667 10.79 4.52909 10.7002 5.03882C10.6906 5.093 10.6811 5.15005 10.6709 5.20972C10.5941 5.66065 10.4914 6.26229 10.2422 6.92358C9.77757 8.15644 8.89074 8.9602 8.01074 9.41382C7.93454 9.45309 7.88026 9.5043 7.84961 9.54761C7.82127 9.58767 7.81934 9.6106 7.81934 9.61792V18.1599C7.81934 18.7377 8.28844 19.2068 8.86621 19.2068H16.1455C17.1015 19.2066 17.8346 18.6435 18.0391 17.9802L19.918 11.8865C20.1905 11.0025 19.4593 9.86217 18.0244 9.86206H13.8223C13.5343 9.86197 13.264 9.72391 13.0947 9.49097C12.9254 9.25776 12.8776 8.95738 12.9668 8.68335C13.5367 6.93328 13.5148 5.73387 13.1221 5.05835C13.1126 5.04208 13.1031 5.02537 13.0947 5.00854C12.7129 4.24514 12.1035 4.00689 11.9004 4.00659C11.8294 4.00659 11.7579 4.00414 11.6982 4.00269H11.6865C11.6208 4.00109 11.5658 3.9996 11.5127 3.99976Z" fill="currentColor"/>
</svg>
