<svg width="24" height="24" viewBox="0 0 24 24" fill="none" xmlns="http://www.w3.org/2000/svg">
<path d="M4 3.08496C4.55224 3.08496 4.99993 3.53273 5 4.08496V18.0361H19.9941L20.0967 18.041C20.6008 18.0923 20.9941 18.5185 20.9941 19.0361C20.9941 19.5538 20.6008 19.9799 20.0967 20.0312L19.9941 20.0361H5C3.89546 20.0361 3.00005 19.1407 3 18.0361V4.08496C3.00007 3.53273 3.44776 3.08496 4 3.08496ZM18.2627 6.5166C18.6316 6.10561 19.2638 6.07157 19.6748 6.44043C20.0858 6.80932 20.1198 7.44153 19.751 7.85254L15.8682 12.1787C15.1552 12.9731 13.9437 13.0678 13.1162 12.3936L10.9121 10.5967L7.45117 14.6602C7.09308 15.0805 6.46145 15.1315 6.04102 14.7734C5.6206 14.4153 5.56969 13.7837 5.92773 13.3633L9.38965 9.2998C10.0949 8.47222 11.3318 8.36 12.1748 9.04688L14.3799 10.8428L18.2627 6.5166Z" fill="currentColor"/>
</svg>
