<svg width="24" height="24" viewBox="0 0 24 24" fill="none" xmlns="http://www.w3.org/2000/svg">
<path fill-rule="evenodd" clip-rule="evenodd" d="M3.97427 8.06961C4.99348 7.33581 6.18946 7.1 7.00001 7.1H9.00001C9.49706 7.1 9.90001 7.50294 9.90001 8C9.90001 8.49706 9.49706 8.9 9.00001 8.9H7.00001C6.47755 8.9 5.67353 9.06419 5.02599 9.53039C4.42434 9.96356 3.90001 10.6934 3.90001 12C3.90001 13.3066 4.42434 14.0364 5.02599 14.4696C5.67353 14.9358 6.47755 15.1 7.00001 15.1H9.00001C9.49706 15.1 9.90001 15.5029 9.90001 16C9.90001 16.4971 9.49706 16.9 9.00001 16.9H7.00001C6.18946 16.9 4.99348 16.6642 3.97427 15.9304C2.90917 15.1636 2.10001 13.8934 2.10001 12C2.10001 10.1066 2.90917 8.83644 3.97427 8.06961ZM14.1 8C14.1 7.50294 14.5029 7.1 15 7.1H17C17.8105 7.1 19.0065 7.33581 20.0257 8.06961C21.0908 8.83644 21.9 10.1066 21.9 12C21.9 13.8934 21.0908 15.1636 20.0257 15.9304C19.0065 16.6642 17.8105 16.9 17 16.9H15C14.5029 16.9 14.1 16.4971 14.1 16C14.1 15.5029 14.5029 15.1 15 15.1H17C17.5225 15.1 18.3265 14.9358 18.974 14.4696C19.5757 14.0364 20.1 13.3066 20.1 12C20.1 10.6934 19.5757 9.96356 18.974 9.53039C18.3265 9.06419 17.5225 8.9 17 8.9H15C14.5029 8.9 14.1 8.49706 14.1 8ZM7.10001 12C7.10001 11.5029 7.50295 11.1 8.00001 11.1H16C16.4971 11.1 16.9 11.5029 16.9 12C16.9 12.4971 16.4971 12.9 16 12.9H8.00001C7.50295 12.9 7.10001 12.4971 7.10001 12Z" fill="currentColor"/>
</svg>
