<svg width="24" height="24" viewBox="0 0 24 24" fill="none" xmlns="http://www.w3.org/2000/svg">
<path fill-rule="evenodd" clip-rule="evenodd" d="M4.10001 5.99998C4.10001 5.50292 4.50295 5.09998 5.00001 5.09998H19C19.4971 5.09998 19.9 5.50292 19.9 5.99998C19.9 6.49703 19.4971 6.89998 19 6.89998H5.00001C4.50295 6.89998 4.10001 6.49703 4.10001 5.99998ZM4.10001 12C4.10001 11.5029 4.50295 11.1 5.00001 11.1H19C19.4971 11.1 19.9 11.5029 19.9 12C19.9 12.497 19.4971 12.9 19 12.9H5.00001C4.50295 12.9 4.10001 12.497 4.10001 12ZM4.10001 18C4.10001 17.5029 4.50295 17.1 5.00001 17.1H19C19.4971 17.1 19.9 17.5029 19.9 18C19.9 18.497 19.4971 18.9 19 18.9H5.00001C4.50295 18.9 4.10001 18.497 4.10001 18Z" fill="currentColor"/>
</svg>
