<svg width="24" height="24" viewBox="0 0 24 24" fill="none" xmlns="http://www.w3.org/2000/svg">
<g clip-path="url(#clip0_3682_3045)">
<path fill-rule="evenodd" clip-rule="evenodd" d="M2.09998 11.9999C2.09998 6.53223 6.53235 2.09985 12 2.09985C13.5789 2.09985 15.0739 2.47013 16.4005 3.12942C16.8456 3.35063 17.0271 3.89079 16.8059 4.33591C16.5847 4.78103 16.0445 4.96254 15.5994 4.74133C14.5162 4.20299 13.2948 3.89985 12 3.89985C7.52646 3.89985 3.89998 7.52634 3.89998 11.9999C3.89998 16.4734 7.52646 20.0998 12 20.0998C16.4734 20.0998 20.1 16.4734 20.1 11.9999C20.1 11.6949 20.0832 11.3943 20.0505 11.0989C19.9958 10.6049 20.3519 10.16 20.846 10.1053C21.34 10.0506 21.7848 10.4067 21.8395 10.9008C21.8796 11.2621 21.9 11.6288 21.9 11.9999C21.9 17.4675 17.4675 21.8998 12 21.8998C6.53236 21.8998 2.09998 17.4675 2.09998 11.9999ZM21.6364 4.36345C21.9878 4.71492 21.9878 5.28477 21.6364 5.63624L12.6364 14.6363C12.4676 14.805 12.2387 14.8999 12 14.8999C11.7613 14.8999 11.5324 14.805 11.3636 14.6363L8.36358 11.6362C8.01211 11.2848 8.01211 10.7149 8.36358 10.3634C8.71506 10.012 9.2849 10.012 9.63637 10.3635L12 12.7271L20.3636 4.36345C20.715 4.01198 21.2849 4.01198 21.6364 4.36345Z" fill="currentColor"/>
</g>
<defs>
<clipPath id="clip0_3682_3045">
<rect width="24" height="24" fill="white"/>
</clipPath>
</defs>
</svg>
