<svg width="24" height="24" viewBox="0 0 24 24" fill="none" xmlns="http://www.w3.org/2000/svg">
<path fill-rule="evenodd" clip-rule="evenodd" d="M2.10001 12C2.10001 6.53225 6.53225 2.10001 12 2.10001C17.4678 2.10001 21.9 6.53225 21.9 12C21.9 17.4678 17.4678 21.9 12 21.9C6.53225 21.9 2.10001 17.4678 2.10001 12ZM12 3.90001C7.52636 3.90001 3.90001 7.52636 3.90001 12C3.90001 16.4736 7.52636 20.1 12 20.1C16.4736 20.1 20.1 16.4736 20.1 12C20.1 7.52636 16.4736 3.90001 12 3.90001Z" fill="currentColor"/>
<path fill-rule="evenodd" clip-rule="evenodd" d="M17.1363 8.56362C17.4878 8.91509 17.4878 9.48494 17.1363 9.83641L11.1489 15.8239C10.7974 16.1754 10.2275 16.1754 9.87606 15.8239L7.15448 13.1023C6.80301 12.7508 6.80301 12.181 7.15448 11.8295C7.50595 11.4781 8.0758 11.4781 8.42727 11.8295L10.5125 13.9147L15.8636 8.56362C16.215 8.21215 16.7849 8.21215 17.1363 8.56362Z" fill="currentColor"/>
</svg>
