<svg width="24" height="24" viewBox="0 0 24 24" fill="none" xmlns="http://www.w3.org/2000/svg">
<path d="M18.9003 10.7998C18.9002 7.08572 16.2547 3.90039 11.9999 3.90039C7.74237 3.90047 5.10056 7.05052 5.10046 10.7998C5.10046 13.0829 6.29178 15.183 7.80359 16.916C9.30556 18.6377 11.0351 19.8955 11.91 20.4775C11.9433 20.4997 11.9743 20.5068 11.9999 20.5068C12.0255 20.5068 12.0564 20.4997 12.0897 20.4775C12.9646 19.8955 14.695 18.638 16.1971 16.916C17.7089 15.183 18.9003 13.0828 18.9003 10.7998ZM14.1005 10.7998C14.1004 9.6401 13.1596 8.7002 11.9999 8.7002C10.8402 8.70027 9.90037 9.64014 9.90027 10.7998C9.90027 11.9596 10.8401 12.9003 11.9999 12.9004C13.1597 12.9004 14.1005 11.9596 14.1005 10.7998ZM15.9003 10.7998C15.9003 12.9537 14.1538 14.7002 11.9999 14.7002C9.84603 14.7001 8.10046 12.9537 8.10046 10.7998C8.10057 8.64603 9.8461 6.90047 11.9999 6.90039C14.1537 6.90039 15.9002 8.64598 15.9003 10.7998ZM20.7001 10.7998C20.7001 13.7092 19.1938 16.2194 17.5536 18.0996C15.9039 19.9907 14.0277 21.3497 13.0868 21.9756C12.4242 22.4163 11.5765 22.4163 10.9139 21.9756C9.9732 21.3498 8.09699 19.9908 6.44714 18.0996C4.8069 16.2194 3.29968 13.7092 3.29968 10.7998C3.29978 6.14935 6.65779 2.09969 11.9999 2.09961C17.3448 2.09961 20.7 6.19035 20.7001 10.7998Z" fill="currentColor"/>
</svg>
