<svg width="24" height="24" viewBox="0 0 24 24" fill="none" xmlns="http://www.w3.org/2000/svg">
<path d="M10.6 12.1692V14.36C10.6 14.8621 11.0029 15.2691 11.5 15.2691C11.997 15.2691 12.4 14.8621 12.4 14.36V12.1692H14.5909C15.093 12.1692 15.5 11.7663 15.5 11.2692C15.5 10.7722 15.093 10.3692 14.5909 10.3692H12.4V8.17816C12.4 7.67608 11.997 7.26907 11.5 7.26907C11.0029 7.26907 10.6 7.67608 10.6 8.17816V10.3692H8.40907C7.90699 10.3692 7.49998 10.7722 7.49998 11.2692C7.49998 11.7663 7.90699 12.1692 8.40907 12.1692H10.6Z" fill="currentColor"/>
<path fill-rule="evenodd" clip-rule="evenodd" d="M3.09998 11.2691C3.09998 6.62977 6.86067 2.86908 11.5 2.86908C16.1393 2.86908 19.9 6.62977 19.9 11.2691C19.9 13.2785 19.1945 15.1231 18.0176 16.5687L20.5758 19.1268C20.9272 19.4783 20.9272 20.0481 20.5758 20.3996C20.2243 20.751 19.6544 20.751 19.303 20.3996L16.739 17.8356C15.3026 18.9831 13.4814 19.6691 11.5 19.6691C6.86067 19.6691 3.09998 15.9084 3.09998 11.2691ZM11.5 4.66908C7.85478 4.66908 4.89998 7.62389 4.89998 11.2691C4.89998 14.9143 7.85478 17.8691 11.5 17.8691C15.1452 17.8691 18.1 14.9143 18.1 11.2691C18.1 7.62389 15.1452 4.66908 11.5 4.66908Z" fill="currentColor"/>
</svg>
