<svg width="24" height="24" viewBox="0 0 24 24" fill="none" xmlns="http://www.w3.org/2000/svg">
<path d="M10.2414 6.20491C10.7108 3.80117 13.895 3.23962 15.1584 5.33772C15.4147 5.76355 15.2776 6.31672 14.8518 6.57307C14.426 6.82914 13.8728 6.69208 13.6164 6.26643C13.2032 5.57996 12.1618 5.76338 12.008 6.54964L11.6243 8.51546H13.3332C13.8302 8.51552 14.2336 8.91883 14.2336 9.41585C14.2336 9.91286 13.8302 10.3162 13.3332 10.3162H11.2727L9.85375 17.5858C9.25329 20.6612 4.9101 20.8166 4.09203 17.7918C3.96234 17.312 4.24705 16.8171 4.7268 16.6873C5.20646 16.558 5.70066 16.8424 5.83031 17.3221C6.15107 18.5066 7.85185 18.4457 8.08715 17.241L9.43871 10.3162H7.70434C7.20728 10.3162 6.80395 9.9129 6.80395 9.41585C6.80395 8.91879 7.20728 8.51546 7.70434 8.51546H9.79027L10.2414 6.20491Z" fill="currentColor"/>
<path d="M17.2221 12.7502C17.5736 12.3988 18.1441 12.3989 18.4956 12.7502C18.8471 13.1017 18.847 13.6722 18.4956 14.0236L16.8696 15.6496L18.4956 17.2756C18.847 17.627 18.847 18.1976 18.4956 18.549C18.1441 18.9005 17.5736 18.9005 17.2221 18.549L15.5962 16.9231L13.9702 18.549C13.6187 18.9005 13.0482 18.9005 12.6968 18.549C12.3454 18.1976 12.3453 17.627 12.6968 17.2756L14.3227 15.6496L12.6968 14.0236C12.3453 13.6722 12.3453 13.1017 12.6968 12.7502C13.0482 12.3988 13.6187 12.3988 13.9702 12.7502L15.5962 14.3762L17.2221 12.7502Z" fill="currentColor"/>
</svg>
