<svg width="24" height="24" viewBox="0 0 24 24" fill="none" xmlns="http://www.w3.org/2000/svg">
<g clip-path="url(#clip0_5425_147)">
<path fill-rule="evenodd" clip-rule="evenodd" d="M18 4.09961C20.1539 4.09961 21.9004 5.84609 21.9004 8V16C21.9004 18.1539 20.1539 19.9004 18 19.9004H6C3.84609 19.9004 2.09961 18.1539 2.09961 16V8C2.09961 5.84609 3.84609 4.09961 6 4.09961H18ZM3.90039 16C3.90039 17.1598 4.8402 18.0996 6 18.0996H18C19.1598 18.0996 20.0996 17.1598 20.0996 16V9.49805L13.5361 13.5361C12.5955 14.1147 11.4075 14.1084 10.4727 13.5205L3.90039 9.38672V16ZM6 5.90039C5.0746 5.90039 4.29039 6.49909 4.01074 7.33008L11.4316 11.9971C11.7861 12.2199 12.2361 12.2222 12.5928 12.0029L20.0195 7.43457C19.7725 6.54993 18.9636 5.90039 18 5.90039H6Z" fill="currentColor"/>
</g>
<defs>
<clipPath id="clip0_5425_147">
<rect width="24" height="24" fill="white"/>
</clipPath>
</defs>
</svg>
