<svg width="24" height="24" viewBox="0 0 24 24" fill="none" xmlns="http://www.w3.org/2000/svg">
<path d="M8.4091 12.1693H14.5909C15.093 12.1693 15.5 11.7663 15.5 11.2693C15.5 10.7722 15.093 10.3693 14.5909 10.3693H8.4091C7.90702 10.3693 7.50001 10.7722 7.50001 11.2693C7.50001 11.7663 7.90702 12.1693 8.4091 12.1693Z" fill="currentColor"/>
<path fill-rule="evenodd" clip-rule="evenodd" d="M3.10001 11.2691C3.10001 6.62983 6.8607 2.86914 11.5 2.86914C16.1393 2.86914 19.9 6.62983 19.9 11.2691C19.9 13.2786 19.1945 15.1231 18.0177 16.5687L20.5758 19.1268C20.9273 19.4783 20.9273 20.0482 20.5758 20.3996C20.2243 20.7511 19.6545 20.7511 19.303 20.3996L16.739 17.8357C15.3026 18.9831 13.4815 19.6691 11.5 19.6691C6.8607 19.6691 3.10001 15.9084 3.10001 11.2691ZM11.5 4.66914C7.85481 4.66914 4.90001 7.62395 4.90001 11.2691C4.90001 14.9143 7.85481 17.8691 11.5 17.8691C15.1452 17.8691 18.1 14.9143 18.1 11.2691C18.1 7.62395 15.1452 4.66914 11.5 4.66914Z" fill="currentColor"/>
</svg>
