<svg width="24" height="24" viewBox="0 0 24 24" fill="none" xmlns="http://www.w3.org/2000/svg">
<path d="M14 16.1006C14.497 16.1006 14.9003 16.503 14.9004 17C14.9004 17.497 14.497 17.9004 14 17.9004H10C9.50294 17.9004 9.09961 17.4971 9.09961 17C9.09966 16.503 9.50298 16.1006 10 16.1006H14Z" fill="currentColor"/>
<path fill-rule="evenodd" clip-rule="evenodd" d="M16 2.09961C18.1539 2.09961 19.9004 3.84609 19.9004 6V18C19.9004 20.1539 18.1539 21.9004 16 21.9004H8C5.84609 21.9004 4.09961 20.1539 4.09961 18V6C4.09961 3.84609 5.84609 2.09961 8 2.09961H16ZM8 3.90039C6.8402 3.90039 5.90039 4.8402 5.90039 6V18C5.90039 19.1598 6.8402 20.0996 8 20.0996H16C17.1598 20.0996 18.0996 19.1598 18.0996 18V6C18.0996 4.8402 17.1598 3.90039 16 3.90039H8Z" fill="currentColor"/>
</svg>
