<svg width="24" height="24" viewBox="0 0 24 24" fill="none" xmlns="http://www.w3.org/2000/svg">
<path d="M8 17C8.82834 17 9.5 17.6717 9.5 18.5C9.5 19.3283 8.82834 20 8 20C7.17166 20 6.5 19.3283 6.5 18.5C6.5 17.6717 7.17166 17 8 17ZM16 17C16.8283 17 17.5 17.6717 17.5 18.5C17.5 19.3283 16.8283 20 16 20C15.1717 20 14.5 19.3283 14.5 18.5C14.5 17.6717 15.1717 17 16 17ZM8 10.5C8.82834 10.5 9.5 11.1717 9.5 12C9.5 12.8283 8.82834 13.5 8 13.5C7.17166 13.5 6.5 12.8283 6.5 12C6.5 11.1717 7.17166 10.5 8 10.5ZM16 10.5C16.8283 10.5 17.5 11.1717 17.5 12C17.5 12.8283 16.8283 13.5 16 13.5C15.1717 13.5 14.5 12.8283 14.5 12C14.5 11.1717 15.1717 10.5 16 10.5ZM8 4C8.82834 4 9.5 4.67166 9.5 5.5C9.5 6.32834 8.82834 7 8 7C7.17166 7 6.5 6.32834 6.5 5.5C6.5 4.67166 7.17166 4 8 4ZM16 4C16.8283 4 17.5 4.67166 17.5 5.5C17.5 6.32834 16.8283 7 16 7C15.1717 7 14.5 6.32834 14.5 5.5C14.5 4.67166 15.1717 4 16 4Z" fill="currentColor"/>
</svg>
