<svg width="24" height="24" viewBox="0 0 24 24" fill="none" xmlns="http://www.w3.org/2000/svg">
<path d="M9.28994 4.9254C9.6436 4.57613 9.64716 4.00629 9.29789 3.65263C8.94862 3.29897 8.37878 3.29541 8.02512 3.64468L5.91339 5.7302L5.16642 4.95867C4.82067 4.60156 4.2509 4.59234 3.89379 4.93809C3.53668 5.28383 3.52747 5.8536 3.87321 6.21071L5.25245 7.6353C5.41956 7.8079 5.64874 7.90653 5.88897 7.90922C6.1292 7.91191 6.36053 7.81845 6.53146 7.64963L9.28994 4.9254Z" fill="currentColor"/>
<path d="M12 5.10001C11.503 5.10001 11.1 5.50295 11.1 6.00001C11.1 6.49706 11.503 6.90001 12 6.90001L19.9965 6.90001C20.4935 6.90001 20.8965 6.49706 20.8965 6.00001C20.8965 5.50295 20.4935 5.10001 19.9965 5.10001L12 5.10001Z" fill="currentColor"/>
<path d="M12 11.1C11.503 11.1 11.1 11.5029 11.1 12C11.1 12.4971 11.503 12.9 12 12.9H19.9965C20.4935 12.9 20.8965 12.4971 20.8965 12C20.8965 11.5029 20.4935 11.1 19.9965 11.1L12 11.1Z" fill="currentColor"/>
<path d="M11.1 18C11.1 17.5029 11.503 17.1 12 17.1L19.9965 17.1C20.4935 17.1 20.8965 17.5029 20.8965 18C20.8965 18.4971 20.4935 18.9 19.9965 18.9H12C11.503 18.9 11.1 18.4971 11.1 18Z" fill="currentColor"/>
<path d="M9.29789 9.77043C9.64716 10.1241 9.6436 10.6939 9.28994 11.0432L6.53146 13.7674C6.36053 13.9362 6.1292 14.0297 5.88897 14.027C5.64874 14.0243 5.41956 13.9257 5.25245 13.7531L3.87321 12.3285C3.52747 11.9714 3.53668 11.4016 3.89379 11.0559C4.2509 10.7101 4.82067 10.7194 5.16642 11.0765L5.91339 11.848L8.02512 9.76248C8.37878 9.41321 8.94862 9.41677 9.29789 9.77043Z" fill="currentColor"/>
<path fill-rule="evenodd" clip-rule="evenodd" d="M6.58866 15.2965C5.09554 15.2965 3.88513 16.5069 3.88513 18C3.88513 19.4931 5.09554 20.7035 6.58866 20.7035C8.08178 20.7035 9.29219 19.4931 9.29219 18C9.29219 16.5069 8.08178 15.2965 6.58866 15.2965ZM5.68513 18C5.68513 17.501 6.08966 17.0965 6.58866 17.0965C7.08767 17.0965 7.49219 17.501 7.49219 18C7.49219 18.499 7.08767 18.9035 6.58866 18.9035C6.08966 18.9035 5.68513 18.499 5.68513 18Z" fill="currentColor"/>
</svg>
