<svg width="24" height="24" viewBox="0 0 24 24" fill="none" xmlns="http://www.w3.org/2000/svg">
<path fill-rule="evenodd" clip-rule="evenodd" d="M8 12.0993C8.49691 12.0993 8.90016 12.5028 8.90039 12.9997V17.9997C8.90039 19.6013 7.60163 20.9001 6 20.9001C4.39837 20.9001 3.09961 19.6013 3.09961 17.9997C3.09984 16.3982 4.39852 15.0993 6 15.0993C6.38939 15.0993 6.76033 15.1778 7.09961 15.317V12.9997C7.09984 12.5028 7.50309 12.0993 8 12.0993ZM6 16.9001C5.39263 16.9001 4.90062 17.3923 4.90039 17.9997C4.90039 18.6072 5.39249 19.0993 6 19.0993C6.60751 19.0993 7.09961 18.6072 7.09961 17.9997C7.09938 17.3923 6.60737 16.9001 6 16.9001Z" fill="currentColor"/>
<path fill-rule="evenodd" clip-rule="evenodd" d="M18.627 3.35611C19.8025 3.12106 20.9001 4.02068 20.9004 5.21939V15.9997C20.9004 17.6013 19.6016 18.9001 18 18.9001C16.3984 18.9001 15.0996 17.6013 15.0996 15.9997C15.0998 14.3982 16.3985 13.0993 18 13.0993C18.3894 13.0993 18.7603 13.1778 19.0996 13.317V9.21939C19.0993 9.15657 19.0421 9.10946 18.9805 9.12173L12.6768 10.3825C12.1894 10.4799 11.7148 10.1637 11.6172 9.67642C11.52 9.18922 11.8361 8.71439 12.3232 8.61685L18.627 7.35611C18.7868 7.32415 18.9452 7.31502 19.0996 7.32291V5.21939C19.0993 5.15657 19.0421 5.10946 18.9805 5.12173L12.6768 6.38248C12.1894 6.47994 11.7148 6.16372 11.6172 5.67642C11.52 5.18922 11.8361 4.71439 12.3232 4.61685L18.627 3.35611ZM18 14.9001C17.3926 14.9001 16.9006 15.3923 16.9004 15.9997C16.9004 16.6072 17.3925 17.0993 18 17.0993C18.6075 17.0993 19.0996 16.6072 19.0996 15.9997C19.0994 15.3923 18.6074 14.9001 18 14.9001Z" fill="currentColor"/>
<path d="M7.32422 5.38931C7.61669 4.87032 8.38346 4.87015 8.67578 5.38931L8.73047 5.50845L8.89551 5.95376L8.97949 6.1481C9.19937 6.58817 9.57968 6.93145 10.0459 7.10415L10.4912 7.26919C11.127 7.50461 11.1666 8.36217 10.6104 8.67544L10.4912 8.73013L10.0459 8.89517C9.5799 9.06783 9.19939 9.41141 8.97949 9.85123L8.89551 10.0456L8.73047 10.4909C8.49495 11.1267 7.63737 11.1665 7.32422 10.61L7.26953 10.4909L7.10449 10.0456C6.93172 9.57931 6.58767 9.19898 6.14746 8.97916L5.9541 8.89517L5.50879 8.73013C4.83054 8.47903 4.83061 7.52037 5.50879 7.26919L5.9541 7.10415L6.14746 7.02017C6.58757 6.80032 6.93176 6.41995 7.10449 5.95376L7.26953 5.50845L7.32422 5.38931Z" fill="currentColor"/>
</svg>
