<svg width="24" height="24" viewBox="0 0 24 24" fill="none" xmlns="http://www.w3.org/2000/svg">
<path fill-rule="evenodd" clip-rule="evenodd" d="M20.4 10.9214C20.4 11.16 20.3052 11.389 20.1364 11.5577L15.6565 16.0377C15.305 16.3891 14.7352 16.3891 14.3837 16.0377C14.0322 15.6862 14.0322 15.1163 14.3837 14.7649L17.3272 11.8214H6C4.8402 11.8214 3.9 12.7616 3.9 13.9214V16.4598C3.9 16.9569 3.49706 17.3598 3 17.3598C2.50294 17.3598 2.1 16.9569 2.1 16.4598V13.9214C2.1 11.7674 3.84609 10.0214 6 10.0214H17.3272L14.3837 7.07784C14.0322 6.72637 14.0322 6.15652 14.3837 5.80505C14.7352 5.45358 15.305 5.45357 15.6565 5.80505L20.1364 10.285C20.3052 10.4537 20.4 10.6827 20.4 10.9214Z" fill="currentColor"/>
</svg>
