<svg width="24" height="24" viewBox="0 0 24 24" fill="none" xmlns="http://www.w3.org/2000/svg">
<path d="M12 2C17.5228 2 22 6.47715 22 12C22 17.5228 17.5228 22 12 22C6.47715 22 2 17.5228 2 12C2 6.47715 6.47715 2 12 2ZM12 3.7998C7.47126 3.7998 3.7998 7.47126 3.7998 12C3.7998 16.5287 7.47126 20.2002 12 20.2002C16.5287 20.2002 20.2002 16.5287 20.2002 12C20.2002 7.47126 16.5287 3.7998 12 3.7998ZM16 14.0996C16.4971 14.0996 16.9004 14.5029 16.9004 15C16.9004 15.4971 16.4971 15.9004 16 15.9004H8C7.50294 15.9004 7.09961 15.4971 7.09961 15C7.09961 14.5029 7.50294 14.0996 8 14.0996H16ZM9.00977 8.25C9.70012 8.25 10.2598 8.80964 10.2598 9.5C10.2598 10.1904 9.70012 10.75 9.00977 10.75H9C8.30964 10.75 7.75 10.1904 7.75 9.5C7.75 8.80964 8.30964 8.25 9 8.25H9.00977ZM15.0098 8.25C15.7001 8.25 16.2598 8.80964 16.2598 9.5C16.2598 10.1904 15.7001 10.75 15.0098 10.75H15C14.3096 10.75 13.75 10.1904 13.75 9.5C13.75 8.80964 14.3096 8.25 15 8.25H15.0098Z" fill="currentColor"/>
</svg>
