<svg width="24" height="24" viewBox="0 0 24 24" fill="none" xmlns="http://www.w3.org/2000/svg">
<path d="M21.06 17.32C21.28 17.59 21.325 17.961 21.175 18.275C21.1003 18.4291 20.9836 18.559 20.8384 18.6497C20.6931 18.7405 20.5253 18.7884 20.354 18.788H15.822C15.6401 19.6667 15.1608 20.4558 14.465 21.0223C13.7692 21.5888 12.8993 21.8982 12.002 21.8982C11.1047 21.8982 10.2348 21.5888 9.53899 21.0223C8.84316 20.4558 8.3639 19.6667 8.182 18.788H3.784C3.63174 18.8138 3.47539 18.8001 3.33 18.748C3.15387 18.6867 3.00114 18.5721 2.89294 18.4202C2.78473 18.2683 2.7264 18.0865 2.726 17.9V17.888C2.7264 17.7648 2.75208 17.6431 2.80145 17.5302C2.85082 17.4174 2.92282 17.3159 3.013 17.232L3.259 16.934L3.26 16.932C4.163 15.828 4.683 14.372 4.683 12.852V9.674C4.723 7.645 5.457 5.729 6.76 4.287C8.071 2.826 9.841 2 11.732 2H12.27C16.27 2 19.33 5.643 19.33 9.861V13.044C19.377 14.498 19.886 15.875 20.743 16.935L20.745 16.937L21.06 17.32ZM8.12 5.483L8.117 5.486C7.124 6.584 6.537 8.077 6.502 9.7V12.85C6.502 14.317 6.12 15.75 5.414 16.987H18.594C17.9177 15.7851 17.5462 14.4357 17.512 13.057V9.86C17.512 6.403 15.046 3.799 12.27 3.799H11.732C10.396 3.799 9.109 4.378 8.12 5.483ZM13.949 18.787H10.055C10.2118 19.1749 10.4809 19.5072 10.8278 19.7412C11.1747 19.9751 11.5836 20.1001 12.002 20.1001C12.4204 20.1001 12.8293 19.9751 13.1762 19.7412C13.5231 19.5072 13.7922 19.1749 13.949 18.787Z" fill="currentColor"/>
</svg>
