<svg width="24" height="24" viewBox="0 0 24 24" fill="none" xmlns="http://www.w3.org/2000/svg">
<path d="M11.7075 2.76001C12.0589 2.4086 12.6285 2.40873 12.9799 2.76001L21.2397 11.0198C21.5911 11.3713 21.5911 11.9408 21.2397 12.2922C20.8883 12.6436 20.3187 12.6436 19.9672 12.2922L19.9145 12.2395L15.4594 16.6956C15.474 18.3714 14.8988 20.0091 13.6684 21.2395C13.3169 21.591 12.7474 21.591 12.396 21.2395L8.21138 17.0559L4.90084 20.3469C4.54823 20.6971 3.97866 20.6946 3.62838 20.342C3.27809 19.9894 3.27971 19.4199 3.63228 19.0696L6.93892 15.7825L2.76021 11.6047C2.40876 11.2533 2.40875 10.6828 2.76021 10.3313C3.99062 9.10095 5.6283 8.52573 7.30416 8.54028L11.7592 4.08423L11.7075 4.03247C11.3562 3.68101 11.3562 3.11143 11.7075 2.76001ZM8.29927 10.0901C8.11572 10.2736 7.86199 10.3691 7.60299 10.3518C6.55349 10.2817 5.55898 10.5143 4.73873 11.0374L12.9624 19.261C13.4854 18.4407 13.7181 17.4462 13.6479 16.3967C13.6306 16.1378 13.7261 15.884 13.9096 15.7004L18.642 10.967L13.0317 5.35669L8.29927 10.0901Z" fill="currentColor"/>
</svg>
