<svg width="24" height="24" viewBox="0 0 24 24" fill="none" xmlns="http://www.w3.org/2000/svg">
<path d="M7.76253 3.10547C8.25778 3.10552 8.74424 3.23849 9.17073 3.49023L19.533 9.60742C20.8536 10.3869 21.2923 12.0901 20.5174 13.4121C20.2785 13.8195 19.9398 14.1604 19.533 14.4004L9.16975 20.5156C7.84722 21.2958 6.14596 20.8511 5.36995 19.5273C5.11962 19.1003 4.9872 18.6142 4.98714 18.1191V5.88672C4.98717 4.3537 6.22731 3.10547 7.76253 3.10547ZM6.78792 18.1191C6.78798 18.2945 6.83431 18.4664 6.92268 18.6172C7.19639 19.0841 7.79338 19.2377 8.25569 18.9648L18.618 12.8496C18.7607 12.7654 18.8803 12.6458 18.9647 12.502C19.2393 12.0334 19.082 11.4311 18.618 11.1572L8.25569 5.04102C8.10612 4.95273 7.93564 4.9063 7.76253 4.90625C7.22705 4.90625 6.78795 5.34218 6.78792 5.88672V18.1191Z" fill="currentColor"/>
</svg>
