<svg width="24" height="24" viewBox="0 0 24 24" fill="none" xmlns="http://www.w3.org/2000/svg">
<path d="M12 6.09961C12.4971 6.09961 12.9004 6.50294 12.9004 7V11.0996H17C17.4971 11.0996 17.9004 11.5029 17.9004 12C17.9004 12.4971 17.4971 12.9004 17 12.9004H12.9004V17C12.9004 17.4971 12.4971 17.9004 12 17.9004C11.5029 17.9004 11.0996 17.4971 11.0996 17V12.9004H7C6.50294 12.9004 6.09961 12.4971 6.09961 12C6.09961 11.5029 6.50294 11.0996 7 11.0996H11.0996V7C11.0996 6.50294 11.5029 6.09961 12 6.09961Z" fill="currentColor"/>
</svg>
