<svg width="24" height="24" viewBox="0 0 24 24" fill="none" xmlns="http://www.w3.org/2000/svg">
<path fill-rule="evenodd" clip-rule="evenodd" d="M2.10001 10.9214C2.10001 11.16 2.19483 11.389 2.36361 11.5577L6.84353 16.0377C7.195 16.3891 7.76485 16.3891 8.11632 16.0377C8.46779 15.6862 8.46779 15.1163 8.11632 14.7649L5.1728 11.8214H16.5C17.6598 11.8214 18.6 12.7616 18.6 13.9214V16.4598C18.6 16.9569 19.0029 17.3598 19.5 17.3598C19.9971 17.3598 20.4 16.9569 20.4 16.4598V13.9214C20.4 11.7674 18.6539 10.0214 16.5 10.0214H5.1728L8.11632 7.07784C8.46779 6.72637 8.46779 6.15652 8.11632 5.80505C7.76485 5.45358 7.195 5.45357 6.84353 5.80505L2.36361 10.285C2.19483 10.4537 2.10001 10.6827 2.10001 10.9214Z" fill="currentColor"/>
</svg>
