<svg width="24" height="24" viewBox="0 0 24 24" fill="none" xmlns="http://www.w3.org/2000/svg">
<path d="M11.9997 12.8779C16.0197 12.878 19.4393 15.3848 20.7048 18.8828C21.0812 19.9234 20.2782 20.8962 19.2038 21.0137L18.9861 21.0264H5.0134L4.79562 21.0137C3.7213 20.8961 2.91743 19.9233 3.29367 18.8828C4.55905 15.3847 7.9797 12.8781 11.9997 12.8779ZM11.9997 14.6777C8.84467 14.6779 6.17462 16.5794 5.09152 19.2256H18.9079C17.8248 16.5793 15.1549 14.6778 11.9997 14.6777ZM12.2312 3.00586C14.6088 3.1264 16.4997 5.09239 16.4997 7.5L16.4939 7.73145C16.3734 10.1091 14.4073 11.9999 11.9997 12C9.59225 11.9998 7.62604 10.109 7.50558 7.73145L7.49973 7.5C7.49973 5.01485 9.51462 3.00021 11.9997 3L12.2312 3.00586ZM11.9997 4.7998C10.5087 4.80001 9.29953 6.00896 9.29953 7.5C9.29953 8.99104 10.5087 10.2 11.9997 10.2002C13.4908 10.2001 14.6999 8.99112 14.6999 7.5C14.6999 6.00888 13.4908 4.79989 11.9997 4.7998Z" fill="currentColor"/>
</svg>
