<svg width="24" height="24" viewBox="0 0 24 24" fill="none" xmlns="http://www.w3.org/2000/svg">
<path d="M11.999 15.0049C12.6208 15.0049 13.1259 15.5091 13.126 16.1309C13.126 16.7528 12.6209 17.2578 11.999 17.2578C11.3773 17.2576 10.873 16.7526 10.873 16.1309C10.8732 15.5092 11.3774 15.0051 11.999 15.0049Z" fill="currentColor"/>
<path d="M10.1611 7.37109C10.9017 6.79576 11.8605 6.60385 12.7881 6.8457C13.808 7.10861 14.6385 7.93756 14.9014 8.95898C15.2694 10.3845 14.5793 11.8629 13.2598 12.4736C13.0803 12.557 12.75 12.9552 12.75 13.3525V13.502C12.75 13.9172 12.4142 14.2527 11.999 14.2529C11.5837 14.2529 11.248 13.9173 11.248 13.502V13.3525C11.248 12.313 11.9587 11.4215 12.6279 11.1113C13.1777 10.8567 13.6681 10.192 13.4473 9.33496C13.3195 8.84253 12.9038 8.42684 12.4121 8.2998C11.9292 8.17289 11.4573 8.26727 11.0811 8.55859C10.71 8.84626 10.4971 9.28012 10.4971 9.74805C10.4968 10.1632 10.1613 10.499 9.74609 10.499C9.33092 10.499 8.99536 10.1632 8.99512 9.74805C8.99512 8.81152 9.41918 7.94493 10.1611 7.37109Z" fill="currentColor"/>
<path fill-rule="evenodd" clip-rule="evenodd" d="M12 2C17.5228 2 22 6.47715 22 12C22 17.5228 17.5228 22 12 22C6.47715 22 2 17.5228 2 12C2 6.47715 6.47715 2 12 2ZM12 3.7998C7.47126 3.7998 3.7998 7.47126 3.7998 12C3.7998 16.5287 7.47126 20.2002 12 20.2002C16.5287 20.2002 20.2002 16.5287 20.2002 12C20.2002 7.47126 16.5287 3.7998 12 3.7998Z" fill="currentColor"/>
</svg>
