<svg width="24" height="24" viewBox="0 0 24 24" fill="none" xmlns="http://www.w3.org/2000/svg">
<path d="M16.6367 3.3634C16.2852 3.01192 15.7147 3.01192 15.3633 3.3634C15.0119 3.71488 15.0118 4.2854 15.3633 4.63683L17.8262 7.09972H9C5.74155 7.09977 3.09961 9.74166 3.09961 13.0001C3.09968 16.2585 5.7416 18.9005 9 18.9005H17C17.497 18.9005 17.9003 18.4971 17.9004 18.0001C17.9004 17.5031 17.4971 17.0997 17 17.0997H9C6.73571 17.0997 4.90046 15.2644 4.90039 13.0001C4.90039 10.7358 6.73567 8.90055 9 8.90051H17.8262L15.3633 11.3634L15.3018 11.4318C15.0134 11.7853 15.0338 12.3073 15.3633 12.6368C15.6928 12.9663 16.2149 12.9867 16.5684 12.6984L16.6367 12.6368L20.6367 8.63683C20.6691 8.60445 20.6972 8.56908 20.7236 8.53332C20.7441 8.50559 20.764 8.47741 20.7812 8.44738C20.7952 8.42311 20.8079 8.39837 20.8193 8.37316C20.8237 8.36365 20.829 8.35453 20.833 8.34484C20.8374 8.33427 20.8408 8.32331 20.8447 8.31261C20.8706 8.24274 20.8877 8.16872 20.8955 8.09191C20.9075 7.97426 20.8975 7.85446 20.8633 7.74035C20.8573 7.72035 20.8491 7.70114 20.8418 7.68176C20.8384 7.67283 20.8367 7.66325 20.833 7.65441C20.8279 7.64216 20.822 7.63025 20.8164 7.61828C20.8095 7.60356 20.8026 7.58874 20.7949 7.57433C20.753 7.49624 20.6989 7.42556 20.6367 7.3634L16.6367 3.3634Z" fill="currentColor"/>
</svg>
