<svg width="24" height="24" viewBox="0 0 24 24" fill="none" xmlns="http://www.w3.org/2000/svg">
<path d="M6.88048 6.89231C9.69226 4.08054 14.251 4.08054 17.0628 6.89231L16.2364 7.71871C15.7324 8.22268 16.0894 9.0844 16.8021 9.0844H19.7276C20.1694 9.0844 20.5276 8.72623 20.5276 8.2844V5.35891C20.5276 4.64619 19.6659 4.28926 19.1619 4.79323L18.3356 5.61952C14.8209 2.1048 9.12241 2.1048 5.60769 5.61952C2.09297 9.13424 2.09297 14.8327 5.60769 18.3474C9.12241 21.8622 14.8209 21.8622 18.3356 18.3474C19.4929 17.1902 20.2703 15.7937 20.6655 14.3163C20.7939 13.8361 20.5087 13.3428 20.0285 13.2143C19.5483 13.0859 19.055 13.3711 18.9266 13.8513C18.611 15.0314 17.9906 16.1469 17.0628 17.0746C14.251 19.8864 9.69226 19.8864 6.88048 17.0746C4.06871 14.2629 4.06871 9.70409 6.88048 6.89231Z" fill="currentColor"/>
</svg>
