<svg width="24" height="24" viewBox="0 0 24 24" fill="none" xmlns="http://www.w3.org/2000/svg">
<path fill-rule="evenodd" clip-rule="evenodd" d="M14.5605 3.09961C15.5539 3.09968 16.51 3.47933 17.2334 4.16016L19.6729 6.45605C20.4558 7.19299 20.9003 8.22067 20.9004 9.2959V17C20.9004 19.1539 19.1539 20.9004 17 20.9004H7C4.84609 20.9004 3.09961 19.1539 3.09961 17V7C3.09961 4.84609 4.84609 3.09961 7 3.09961H14.5605ZM7 4.90039C5.8402 4.90039 4.90039 5.8402 4.90039 7V17C4.90039 18.1598 5.8402 19.0996 7 19.0996H7.59961V15.5C7.59961 13.8984 8.89837 12.5996 10.5 12.5996H13.5C15.1016 12.5996 16.4004 13.8984 16.4004 15.5V19.0996H17C18.1598 19.0996 19.0996 18.1598 19.0996 17V9.2959C19.0995 8.71698 18.861 8.16338 18.4395 7.7666L16 5.4707C15.968 5.44055 15.9341 5.41269 15.9004 5.38477V6C15.9004 7.60163 14.6016 8.90039 13 8.90039H11C9.39837 8.90039 8.09961 7.60163 8.09961 6V4.90039H7ZM10.5 14.4004C9.89249 14.4004 9.40039 14.8925 9.40039 15.5V19.0996H14.5996V15.5C14.5996 14.8925 14.1075 14.4004 13.5 14.4004H10.5ZM9.90039 6C9.90039 6.60751 10.3925 7.09961 11 7.09961H13C13.6075 7.09961 14.0996 6.60751 14.0996 6V4.90039H9.90039V6Z" fill="currentColor"/>
</svg>
