<svg width="24" height="24" viewBox="0 0 24 24" fill="none" xmlns="http://www.w3.org/2000/svg">
<path d="M5.417 4.01093C5.68927 3.97886 5.96542 4.01769 6.21973 4.12323L6.22071 4.12226L20.8008 9.4953C21.0761 9.60824 21.3146 9.79548 21.4893 10.0344L21.5606 10.1408L21.6231 10.2512C21.7579 10.5149 21.8181 10.8116 21.7949 11.1086C21.7684 11.4479 21.6343 11.7699 21.4131 12.0285C21.1919 12.2871 20.8945 12.4683 20.5635 12.5471L20.5645 12.548L14.4053 14.0217C14.3128 14.0438 14.2275 14.0913 14.1602 14.1584C14.0927 14.2257 14.0447 14.3109 14.0225 14.4035L12.5498 20.5578L12.5508 20.5588C12.4728 20.891 12.2912 21.1901 12.0322 21.4123C11.7733 21.6344 11.4504 21.7685 11.1104 21.7951C10.7702 21.8216 10.4299 21.7391 10.1397 21.5598C9.84941 21.3804 9.6236 21.1132 9.49512 20.7971L4.12207 6.22089L4.12305 6.21991C4.00215 5.92871 3.96917 5.60873 4.0293 5.29902L4.05567 5.18183C4.12903 4.91318 4.27185 4.66779 4.46973 4.46991C4.69594 4.24373 4.98484 4.09051 5.29883 4.02948L5.417 4.01093ZM10.9365 19.5666L12.2725 13.9836C12.3724 13.568 12.5852 13.187 12.8877 12.885C13.1902 12.5829 13.5705 12.37 13.9863 12.2707L19.5664 10.9348L5.95996 5.96015L10.9365 19.5666Z" fill="currentColor"/>
</svg>
