<svg width="24" height="24" viewBox="0 0 24 24" fill="none" xmlns="http://www.w3.org/2000/svg">
<path fill-rule="evenodd" clip-rule="evenodd" d="M9.05176 5.80851C9.05182 3.40834 11.8738 2.12034 13.6865 3.69328L20.8223 9.88761C22.096 10.9932 22.1109 12.9657 20.8535 14.0898L13.7178 20.4687C11.9138 22.0813 9.05176 20.8005 9.05176 18.3808V16.2909C8.2781 16.3437 7.66169 16.4514 7.10254 16.6503C6.38481 16.9056 5.65113 17.3526 4.79102 18.2382C4.28046 18.7639 3.50231 18.9277 2.82324 18.6523C2.14426 18.3767 1.7002 17.7171 1.7002 16.9843C1.70023 14.6724 2.26648 12.5077 3.66309 10.8456C4.95815 9.30449 6.8038 8.39034 9.05176 8.0839V5.80851ZM12.5068 5.05265C11.8594 4.49104 10.8516 4.95139 10.8516 5.80851V8.76652L10.8457 8.86808C10.7944 9.37188 10.3675 9.76305 9.85156 9.80558L9.44922 9.8466C5.37063 10.3374 3.50006 13.0427 3.5 16.9843C5.53883 14.885 7.34201 14.5134 9.85059 14.456C10.4027 14.4433 10.8515 14.894 10.8516 15.4462V18.3808C10.8516 19.1908 11.7494 19.6434 12.3926 19.2226L12.5176 19.1269L19.6533 12.747C20.0743 12.3706 20.0964 11.7283 19.7227 11.3241L19.6426 11.247L12.5068 5.05265Z" fill="currentColor"/>
</svg>
