<svg width="24" height="24" viewBox="0 0 24 24" fill="none" xmlns="http://www.w3.org/2000/svg">
<path d="M12 2C17.5228 2 22 6.47715 22 12C22 17.5228 17.5228 22 12 22C6.47715 22 2 17.5228 2 12C2 6.47715 6.47715 2 12 2ZM12 3.7998C7.47126 3.7998 3.7998 7.47126 3.7998 12C3.7998 16.5287 7.47126 20.2002 12 20.2002C16.5287 20.2002 20.2002 16.5287 20.2002 12C20.2002 7.47126 16.5287 3.7998 12 3.7998ZM7.45996 13.7803C7.8574 13.4822 8.42039 13.5629 8.71875 13.96C8.71963 13.9611 8.72128 13.9621 8.72266 13.9639C8.72917 13.9721 8.74161 13.9873 8.75879 14.0078C8.79318 14.0488 8.84832 14.1117 8.92285 14.1895C9.07339 14.3465 9.29948 14.5599 9.5918 14.7725C10.1799 15.2001 10.998 15.5996 12 15.5996C13.002 15.5996 13.8201 15.2001 14.4082 14.7725C14.7005 14.5599 14.9266 14.3465 15.0771 14.1895C15.1517 14.1117 15.2068 14.0488 15.2412 14.0078C15.2584 13.9873 15.2708 13.9721 15.2773 13.9639C15.2785 13.9624 15.2795 13.961 15.2803 13.96C15.5785 13.5625 16.1424 13.4821 16.54 13.7803C16.9375 14.0785 17.0179 14.6424 16.7197 15.04L16.7188 15.041L16.7178 15.043C16.7171 15.0438 16.7166 15.0449 16.7158 15.0459L16.6885 15.0811C16.6719 15.1021 16.6487 15.13 16.6201 15.1641C16.5627 15.2324 16.4808 15.3262 16.376 15.4355C16.1672 15.6534 15.8617 15.9403 15.4668 16.2275C14.6799 16.7998 13.498 17.4004 12 17.4004C10.502 17.4004 9.3201 16.7998 8.5332 16.2275C8.1383 15.9403 7.83283 15.6534 7.62402 15.4355C7.51924 15.3262 7.43725 15.2324 7.37988 15.1641C7.35129 15.13 7.32815 15.1021 7.31152 15.0811L7.28418 15.0459C7.28341 15.0449 7.28287 15.0438 7.28223 15.043L7.28125 15.041C7.28103 15.0407 7.28 15.04 8 14.5L7.28027 15.04C6.98208 14.6424 7.06245 14.0785 7.45996 13.7803ZM9.00977 8.25C9.70012 8.25 10.2598 8.80964 10.2598 9.5C10.2598 10.1904 9.70012 10.75 9.00977 10.75H9C8.30964 10.75 7.75 10.1904 7.75 9.5C7.75 8.80964 8.30964 8.25 9 8.25H9.00977ZM15.0098 8.25C15.7001 8.25 16.2598 8.80964 16.2598 9.5C16.2598 10.1904 15.7001 10.75 15.0098 10.75H15C14.3096 10.75 13.75 10.1904 13.75 9.5C13.75 8.80964 14.3096 8.25 15 8.25H15.0098Z" fill="currentColor"/>
</svg>
