<svg width="24" height="24" viewBox="0 0 24 24" fill="none" xmlns="http://www.w3.org/2000/svg">
<path fill-rule="evenodd" clip-rule="evenodd" d="M7.78027 8.90405C7.5 9.45411 7.5 10.1742 7.5 11.6144V12.3856C7.5 13.8258 7.5 14.5459 7.78027 15.096C8.02681 15.5798 8.42019 15.9732 8.90405 16.2197C9.45411 16.5 10.1742 16.5 11.6144 16.5H12.3856C13.8258 16.5 14.5459 16.5 15.096 16.2197C15.5798 15.9732 15.9732 15.5798 16.2197 15.096C16.5 14.5459 16.5 13.8258 16.5 12.3856V11.6144C16.5 10.1742 16.5 9.45411 16.2197 8.90405C15.9732 8.42019 15.5798 8.02681 15.096 7.78027C14.5459 7.5 13.8258 7.5 12.3856 7.5H11.6144C10.1742 7.5 9.45411 7.5 8.90405 7.78027C8.42019 8.02681 8.02681 8.42019 7.78027 8.90405Z" fill="currentColor"/>
</svg>
