<svg width="24" height="24" viewBox="0 0 24 24" fill="none" xmlns="http://www.w3.org/2000/svg">
<path fill-rule="evenodd" clip-rule="evenodd" d="M14.6357 12.1953C16.4863 12.1953 18.0357 13.4847 18.4355 15.2139C18.4341 15.2077 18.4331 15.2015 18.4316 15.1953H20.0879C20.5846 15.1956 20.9881 15.599 20.9883 16.0957C20.9882 16.5925 20.5846 16.9958 20.0879 16.9961H18.4316C18.4348 16.9825 18.4374 16.9687 18.4404 16.9551C18.0489 18.6956 16.4944 19.9961 14.6357 19.9961C12.7919 19.996 11.2473 18.7159 10.8408 16.9961H3.91309L3.82129 16.9912C3.36764 16.945 3.01379 16.5615 3.01367 16.0957C3.01385 15.6299 3.36765 15.2463 3.82129 15.2002L3.91309 15.1953H10.8408C11.2474 13.4756 12.7919 12.1954 14.6357 12.1953ZM14.6357 13.9961C13.4761 13.9962 12.5362 14.9361 12.5361 16.0957C12.5361 17.2554 13.4761 18.1952 14.6357 18.1953C15.7955 18.1953 16.7354 17.2555 16.7354 16.0957C16.7353 14.936 15.7955 13.9961 14.6357 13.9961Z" fill="currentColor"/>
<path fill-rule="evenodd" clip-rule="evenodd" d="M9.42285 4.00391C11.2801 4.00391 12.8336 5.30248 13.2266 7.04102C13.2238 7.02868 13.2217 7.0162 13.2188 7.00391H20.0879L20.1797 7.00879C20.6332 7.05513 20.9872 7.43854 20.9873 7.9043C20.9872 8.37001 20.6332 8.75349 20.1797 8.7998L20.0879 8.80469H13.2188C13.2239 8.78307 13.2277 8.76101 13.2324 8.73926C12.8499 10.4918 11.29 11.8047 9.42285 11.8047C7.57901 11.8046 6.03454 10.5244 5.62793 8.80469H3.91309C3.4163 8.80446 3.01184 8.4011 3.01172 7.9043C3.01178 7.40743 3.41626 7.00414 3.91309 7.00391H5.62793C6.03446 5.28407 7.57893 4.00398 9.42285 4.00391ZM9.42285 5.80469C8.26312 5.80477 7.32324 6.74455 7.32324 7.9043C7.32331 9.06399 8.26316 10.0038 9.42285 10.0039C10.5826 10.0039 11.5224 9.06404 11.5225 7.9043C11.5225 6.7445 10.5826 5.80469 9.42285 5.80469Z" fill="currentColor"/>
</svg>
