<svg width="24" height="24" viewBox="0 0 24 24" fill="none" xmlns="http://www.w3.org/2000/svg">
<path d="M19 3.83008C20.6015 3.83018 21.9003 5.12902 21.9004 6.73047V16.7305C21.9004 18.332 20.6015 19.6308 19 19.6309H5C3.39837 19.6309 2.09961 18.3321 2.09961 16.7305V6.73047C2.09974 5.12896 3.39846 3.83008 5 3.83008H19ZM15.8994 15.1309V17.8301H19C19.6074 17.83 20.0996 17.3379 20.0996 16.7305V15.1309H15.8994ZM9.89941 17.8301H14.0996V15.1309H9.89941V17.8301ZM3.90039 16.7305C3.90039 17.338 4.39249 17.8301 5 17.8301H8.09961V15.1309H3.90039V16.7305ZM15.8994 10.1309V13.3311H20.0996V10.1309H15.8994ZM3.90039 13.3311H8.09961V10.1309H3.90039V13.3311ZM9.89941 13.3311H14.0996V10.1309H9.89941V13.3311ZM15.8994 8.33105H20.0996V6.73047C20.0995 6.12313 19.6073 5.63096 19 5.63086H15.8994V8.33105ZM5 5.63086C4.39257 5.63086 3.90052 6.12307 3.90039 6.73047V8.33105H8.09961V5.63086H5ZM9.89941 8.33105H14.0996V5.63086H9.89941V8.33105Z" fill="currentColor"/>
</svg>
