<svg width="24" height="24" viewBox="0 0 24 24" fill="none" xmlns="http://www.w3.org/2000/svg">
<path fill-rule="evenodd" clip-rule="evenodd" d="M17.711 2.52188C17.2215 2.43557 16.7547 2.76242 16.6684 3.25192L15.9899 7.1L9.97778 7.1L10.6011 3.56521C10.6874 3.07571 10.3605 2.60892 9.87102 2.5226C9.38151 2.43629 8.91472 2.76314 8.82841 3.25265L8.15002 7.1H4.00001C3.50295 7.1 3.10001 7.50294 3.10001 8C3.10001 8.49705 3.50295 8.9 4.00001 8.9H7.83263L6.7394 15.1H3.00001C2.50295 15.1 2.10001 15.5029 2.10001 16C2.10001 16.4971 2.50295 16.9 3.00001 16.9H6.42201L5.78982 20.4853C5.70351 20.9748 6.03036 21.4416 6.51987 21.5279C7.00937 21.6142 7.47617 21.2874 7.56248 20.7979L8.24978 16.9H14.2619L13.6297 20.4853C13.5434 20.9748 13.8702 21.4416 14.3597 21.5279C14.8492 21.6142 15.316 21.2874 15.4023 20.7979L16.0896 16.9H20C20.4971 16.9 20.9 16.4971 20.9 16C20.9 15.5029 20.4971 15.1 20 15.1H16.407L17.5002 8.9H21C21.4971 8.9 21.9 8.49705 21.9 8C21.9 7.50294 21.4971 7.1 21 7.1H17.8176L18.441 3.56449C18.5273 3.07499 18.2005 2.60819 17.711 2.52188ZM15.6725 8.9L14.5792 15.1L8.56717 15.1L9.6604 8.9L15.6725 8.9Z" fill="currentColor"/>
</svg>
