<svg width="24" height="24" viewBox="0 0 24 24" fill="none" xmlns="http://www.w3.org/2000/svg">
<path fill-rule="evenodd" clip-rule="evenodd" d="M18.9893 6.60743C20.5897 6.60757 21.8877 7.8926 21.8877 9.47736C21.8877 10.7416 21.0607 11.8129 19.9141 12.1955V14.257C19.914 15.8428 18.6152 17.1288 17.0137 17.1289H12.8438V20.1381C12.8437 20.6301 12.4412 21.0293 11.9443 21.0296C11.4473 21.0296 11.044 20.6302 11.0439 20.1381V16.4356C11.0441 15.8343 11.5363 15.3461 12.1436 15.3458H17.0137C17.6211 15.3457 18.1133 14.8585 18.1133 14.257V12.2129C16.9408 11.8451 16.0909 10.7598 16.0908 9.47736C16.0908 7.89251 17.3887 6.60743 18.9893 6.60743ZM18.9893 8.38953C18.3828 8.38953 17.8906 8.87684 17.8906 9.47736C17.8907 10.0778 18.3828 10.5642 18.9893 10.5642C19.5956 10.5641 20.0869 10.0777 20.0869 9.47736C20.0869 8.87693 19.5956 8.38967 18.9893 8.38953Z" fill="currentColor"/>
<path fill-rule="evenodd" clip-rule="evenodd" d="M4.89844 6.60743C6.49899 6.60747 7.79688 7.89254 7.79688 9.47736C7.79684 10.7388 6.97371 11.8078 5.83105 12.1926V14.4021C5.83105 15.0036 6.32315 15.4918 6.93066 15.4918H8.37109C8.86789 15.492 9.27038 15.8905 9.27051 16.3824C9.27051 16.8744 8.86797 17.2737 8.37109 17.2739H6.93066C5.32904 17.2739 4.03027 15.9879 4.03027 14.4021V12.2158C2.85382 11.8504 2.00004 10.7627 2 9.47736C2 7.89251 3.29784 6.60743 4.89844 6.60743ZM4.89844 8.38953C4.29196 8.38953 3.7998 8.87684 3.7998 9.47736C3.79985 10.0778 4.29198 10.5642 4.89844 10.5642C5.50485 10.5642 5.99605 10.0778 5.99609 9.47736C5.99609 8.87687 5.50488 8.38958 4.89844 8.38953Z" fill="currentColor"/>
<path fill-rule="evenodd" clip-rule="evenodd" d="M11.9434 2.9707C13.5439 2.97075 14.8418 4.25581 14.8418 5.84063C14.8418 7.11413 14.0035 8.1923 12.8438 8.56745V13.0135C12.8436 13.5056 12.4403 13.9041 11.9434 13.9041C11.4466 13.9039 11.0431 13.5055 11.043 13.0135V8.56745C9.8836 8.19209 9.04496 7.11387 9.04492 5.84063C9.04492 4.25592 10.343 2.97093 11.9434 2.9707ZM11.9434 4.75281C11.3371 4.75303 10.8447 5.24026 10.8447 5.84063C10.8448 6.44097 11.3371 6.92726 11.9434 6.92749C12.5498 6.92745 13.041 6.44108 13.041 5.84063C13.041 5.24014 12.5498 4.75285 11.9434 4.75281Z" fill="currentColor"/>
</svg>
