<svg width="24" height="24" viewBox="0 0 24 24" fill="none" xmlns="http://www.w3.org/2000/svg">
<path fill-rule="evenodd" clip-rule="evenodd" d="M5.99998 5.9001C5.94475 5.9001 5.89998 5.94487 5.89998 6.0001V7.8126C5.89998 8.30965 5.49703 8.7126 4.99998 8.7126C4.50292 8.7126 4.09998 8.30965 4.09998 7.8126V6.0001C4.09998 4.95076 4.95063 4.1001 5.99998 4.1001H18C19.0493 4.1001 19.9 4.95076 19.9 6.0001V7.8126C19.9 8.30965 19.497 8.7126 19 8.7126C18.5029 8.7126 18.1 8.30965 18.1 7.8126V6.0001C18.1 5.94487 18.0552 5.9001 18 5.9001H12.9V19.1001H14.625C15.122 19.1001 15.525 19.503 15.525 20.0001C15.525 20.4972 15.122 20.9001 14.625 20.9001H9.37498C8.87792 20.9001 8.47498 20.4972 8.47498 20.0001C8.47498 19.503 8.87792 19.1001 9.37498 19.1001H11.1V5.9001H5.99998Z" fill="currentColor"/>
</svg>
