<svg width="24" height="24" viewBox="0 0 24 24" fill="none" xmlns="http://www.w3.org/2000/svg">
<path d="M9.28994 4.92561C9.6436 4.57634 9.64716 4.0065 9.29789 3.65284C8.94862 3.29918 8.37878 3.29563 8.02512 3.6449L5.91339 5.73041L5.16642 4.95888C4.82067 4.60177 4.2509 4.59256 3.89379 4.9383C3.53668 5.28404 3.52747 5.85382 3.87321 6.21093L5.25245 7.63551C5.41956 7.80811 5.64874 7.90674 5.88897 7.90943C6.1292 7.91213 6.36053 7.81866 6.53146 7.64985L9.28994 4.92561Z" fill="currentColor"/>
<path d="M12 5.10022C11.503 5.10022 11.1 5.50316 11.1 6.00022C11.1 6.49728 11.503 6.90022 12 6.90022L19.9965 6.90022C20.4935 6.90022 20.8965 6.49728 20.8965 6.00022C20.8965 5.50316 20.4935 5.10022 19.9965 5.10022L12 5.10022Z" fill="currentColor"/>
<path d="M12 11.1002C11.503 11.1002 11.1 11.5032 11.1 12.0002C11.1 12.4973 11.503 12.9002 12 12.9002H19.9965C20.4935 12.9002 20.8965 12.4973 20.8965 12.0002C20.8965 11.5032 20.4935 11.1002 19.9965 11.1002L12 11.1002Z" fill="currentColor"/>
<path d="M11.1 18.0002C11.1 17.5032 11.503 17.1002 12 17.1002L19.9965 17.1002C20.4935 17.1002 20.8965 17.5032 20.8965 18.0002C20.8965 18.4973 20.4935 18.9002 19.9965 18.9002H12C11.503 18.9002 11.1 18.4973 11.1 18.0002Z" fill="currentColor"/>
<path d="M9.29789 9.77064C9.64716 10.1243 9.6436 10.6941 9.28994 11.0434L6.53146 13.7676C6.36053 13.9365 6.1292 14.0299 5.88897 14.0272C5.64874 14.0245 5.41956 13.9259 5.25245 13.7533L3.87321 12.3287C3.52747 11.9716 3.53668 11.4018 3.89379 11.0561C4.2509 10.7104 4.82067 10.7196 5.16642 11.0767L5.91339 11.8482L8.02512 9.76269C8.37878 9.41342 8.94862 9.41698 9.29789 9.77064Z" fill="currentColor"/>
<path d="M9.29789 15.7436C9.64716 16.0973 9.6436 16.6671 9.28994 17.0164L6.53146 19.7406C6.36053 19.9094 6.1292 20.0029 5.88897 20.0002C5.64874 19.9975 5.41956 19.8989 5.25245 19.7263L3.87321 18.3017C3.52747 17.9446 3.53668 17.3748 3.89379 17.0291C4.2509 16.6833 4.82067 16.6926 5.16642 17.0497L5.91339 17.8212L8.02512 15.7357C8.37878 15.3864 8.94862 15.39 9.29789 15.7436Z" fill="currentColor"/>
</svg>
