<svg width="24" height="24" viewBox="0 0 24 24" fill="none" xmlns="http://www.w3.org/2000/svg">
<path fill-rule="evenodd" clip-rule="evenodd" d="M8.09752 2.19507C8.5421 1.97278 9.08271 2.15298 9.305 2.59756L10.0562 4.10005H13.5C13.9971 4.10005 14.4 4.50299 14.4 5.00005C14.4 5.49711 13.9971 5.90005 13.5 5.90005H12.3106C12.2556 6.2319 12.1667 6.64073 12.0226 7.0987C11.7254 8.04355 11.191 9.20402 10.2334 10.3239C11.4166 11.196 12.5606 11.7524 13.4512 12.0987C13.978 12.3036 14.4136 12.434 14.7124 12.5122L14.7348 12.5181L15.695 10.5976C15.8475 10.2927 16.1591 10.1 16.5 10.1C16.8409 10.1 17.1525 10.2927 17.305 10.5976L20.7969 17.5814L20.8044 17.5959L20.8137 17.615L21.805 19.5976C22.0273 20.0421 21.8471 20.5827 21.4025 20.805C20.9579 21.0273 20.4173 20.8471 20.195 20.4025L19.4438 18.9H13.5562L12.805 20.4025C12.5827 20.8471 12.0421 21.0273 11.5975 20.805C11.1529 20.5827 10.9727 20.0421 11.195 19.5976L12.1863 17.615C12.1917 17.6036 12.1973 17.5924 12.2031 17.5814L13.9146 14.1583C13.6034 14.0667 13.2256 13.9423 12.7988 13.7764C11.7294 13.3605 10.3442 12.6802 8.92538 11.5924C7.79753 12.5167 6.69473 13.0764 5.83285 13.4112C5.33899 13.603 4.92286 13.7216 4.62401 13.7931C4.47449 13.8288 4.35399 13.8529 4.26741 13.8684C4.2241 13.8762 4.18924 13.8818 4.16343 13.8858L4.13156 13.8904L4.12084 13.8919L4.11682 13.8924L4.11514 13.8927C4.11514 13.8927 4.11368 13.8928 4.00001 13L4.11368 13.8928C3.62061 13.9556 3.17 13.6068 3.10722 13.1137C3.0446 12.6219 3.39148 12.1723 3.88256 12.1077L3.94947 12.0967C4.00428 12.0869 4.09114 12.0698 4.20543 12.0424C4.43422 11.9877 4.77156 11.8924 5.18106 11.7334C5.84103 11.477 6.68484 11.0564 7.56458 10.3753C7.15054 9.93496 6.78945 9.48388 6.50421 9.10102C6.26672 8.78224 6.07517 8.50172 5.94227 8.29973C5.87571 8.19858 5.82359 8.11671 5.78748 8.05909C5.76942 8.03027 5.75535 8.00749 5.74545 7.99135L5.73377 7.9722L5.73032 7.96651L5.72864 7.96371C5.71133 7.9349 5.69582 7.9055 5.68208 7.87566C5.49265 7.46416 5.6393 6.96717 6.03659 6.72853C6.09037 6.69623 6.14617 6.6702 6.20315 6.65023C6.59739 6.51205 7.04758 6.66421 7.27129 7.03623L7.27266 7.0385L7.28001 7.05054C7.28695 7.06186 7.29793 7.07964 7.31274 7.10328C7.34239 7.15059 7.38731 7.2212 7.44595 7.31032C7.56343 7.48886 7.73484 7.73997 7.94765 8.02562C8.21085 8.37889 8.52772 8.77187 8.8756 9.14201C9.64226 8.24147 10.0681 7.3133 10.3056 6.55854C10.381 6.3186 10.4372 6.09683 10.4791 5.90005H9.51951C9.50696 5.90031 9.49442 5.90031 9.48191 5.90005H4.00001C3.50296 5.90005 3.10001 5.49711 3.10001 5.00005C3.10001 4.50299 3.50296 4.10005 4.00001 4.10005H8.04378L7.69503 3.40254C7.67314 3.35877 7.65516 3.31407 7.64094 3.26883C7.51078 2.8546 7.69671 2.39547 8.09752 2.19507ZM16.5 13.0125L18.5438 17.1H14.4562L16.5 13.0125Z" fill="currentColor"/>
<path d="M15.1 4.00007C15.1 3.50301 15.5029 3.10007 16 3.10007H18C19.6016 3.10007 20.9 4.39844 20.9 6.00007V8.00007C20.9 8.49712 20.497 8.90007 20 8.90007C19.5029 8.90007 19.1 8.49712 19.1 8.00007V6.00007C19.1 5.39255 18.6075 4.90007 18 4.90007H16C15.5029 4.90007 15.1 4.49712 15.1 4.00007Z" fill="currentColor"/>
<path d="M3.99998 15.1001C4.49703 15.1001 4.89998 15.503 4.89998 16.0001V18.0001C4.89998 18.6076 5.39246 19.1001 5.99998 19.1001H7.99998C8.49703 19.1001 8.89998 19.503 8.89998 20.0001C8.89998 20.4971 8.49703 20.9001 7.99998 20.9001H5.99998C4.39835 20.9001 3.09998 19.6017 3.09998 18.0001V16.0001C3.09998 15.503 3.50292 15.1001 3.99998 15.1001Z" fill="currentColor"/>
</svg>
