<svg width="24" height="24" viewBox="0 0 24 24" fill="none" xmlns="http://www.w3.org/2000/svg">
<path d="M7.36336 3.3634C7.71483 3.01192 8.28533 3.01192 8.6368 3.3634C8.98817 3.71488 8.98824 4.2854 8.6368 4.63683L6.17391 7.09972H15.0001C18.2585 7.09977 20.9005 9.74166 20.9005 13.0001C20.9004 16.2585 18.2585 18.9005 15.0001 18.9005H7.00008C6.50307 18.9005 6.09976 18.4971 6.09969 18.0001C6.09969 17.5031 6.50302 17.0997 7.00008 17.0997H15.0001C17.2644 17.0997 19.0996 15.2644 19.0997 13.0001C19.0997 10.7358 17.2644 8.90055 15.0001 8.90051H6.17391L8.6368 11.3634L8.69832 11.4318C8.98668 11.7853 8.96632 12.3073 8.6368 12.6368C8.30728 12.9663 7.78521 12.9867 7.43172 12.6984L7.36336 12.6368L3.36336 8.63683C3.33098 8.60445 3.30286 8.56908 3.27645 8.53332C3.25597 8.50559 3.23607 8.47741 3.21883 8.44738C3.20492 8.42311 3.19221 8.39837 3.18074 8.37316C3.1764 8.36365 3.17109 8.35453 3.16707 8.34484C3.1627 8.33427 3.1593 8.32331 3.15535 8.31261C3.12946 8.24274 3.11237 8.16872 3.10457 8.09191C3.09258 7.97426 3.10262 7.85446 3.1368 7.74035C3.14281 7.72035 3.15094 7.70114 3.15828 7.68176C3.16165 7.67283 3.16341 7.66325 3.16707 7.65441C3.17216 7.64216 3.17806 7.63025 3.18367 7.61828C3.19055 7.60356 3.19744 7.58874 3.20516 7.57433C3.24709 7.49624 3.3012 7.42556 3.36336 7.3634L7.36336 3.3634Z" fill="currentColor"/>
</svg>
