<svg width="24" height="24" viewBox="0 0 24 24" fill="none" xmlns="http://www.w3.org/2000/svg">
<path fill-rule="evenodd" clip-rule="evenodd" d="M5.80482 17.0975C5.45382 16.7461 5.45372 16.1764 5.80482 15.8251C6.1563 15.4738 6.72684 15.4737 7.07826 15.8251L11.2072 19.954C11.6356 20.3824 12.3299 20.3838 12.7599 19.9569L16.9249 15.8231C17.2776 15.4731 17.8472 15.4745 18.1974 15.827C18.5475 16.1797 18.5451 16.7503 18.1925 17.1005L14.0285 21.2342C12.8948 22.3597 11.0644 22.3568 9.93471 21.2274L5.80482 17.0975ZM5.80482 8.17468C5.45374 7.8233 5.4538 7.25363 5.80482 6.90222L9.93471 2.77234C11.0644 1.64305 12.8949 1.6401 14.0285 2.7655L18.1925 6.89929C18.5452 7.24944 18.5474 7.81999 18.1974 8.17272C17.8472 8.52529 17.2776 8.52674 16.9249 8.17663L12.7599 4.04284C12.3299 3.61602 11.6356 3.61746 11.2072 4.04577L7.07826 8.17468C6.7268 8.52614 6.1563 8.52612 5.80482 8.17468Z" fill="currentColor"/>
</svg>
