<svg width="24" height="24" viewBox="0 0 24 24" fill="none" xmlns="http://www.w3.org/2000/svg">
<path fill-rule="evenodd" clip-rule="evenodd" d="M12 2.1001C6.53222 2.1001 2.09998 6.53234 2.09998 12.0001C2.09998 17.4679 6.53222 21.9001 12 21.9001C17.4677 21.9001 21.9 17.4679 21.9 12.0001C21.9 6.53234 17.4677 2.1001 12 2.1001ZM3.89998 12.0001C3.89998 7.52645 7.52633 3.9001 12 3.9001C16.4736 3.9001 20.1 7.52645 20.1 12.0001C20.1 16.4737 16.4736 20.1001 12 20.1001C7.52633 20.1001 3.89998 16.4737 3.89998 12.0001Z" fill="currentColor"/>
<path d="M16.5364 10.4001C16.8879 10.7516 16.8879 11.3214 16.5364 11.6729C16.1849 12.0244 15.6151 12.0244 15.2636 11.6729L12.9 9.30933V16.3365C12.9 16.8335 12.4971 17.2365 12 17.2365C11.503 17.2365 11.1 16.8335 11.1 16.3365V9.30933L8.73641 11.6729C8.38494 12.0244 7.81509 12.0244 7.46362 11.6729C7.11214 11.3214 7.11214 10.7516 7.46362 10.4001L11.3636 6.50012C11.7151 6.14863 12.2849 6.14863 12.6364 6.50012L16.5364 10.4001Z" fill="currentColor"/>
</svg>
