<svg width="24" height="24" viewBox="0 0 24 24" fill="none" xmlns="http://www.w3.org/2000/svg">
<path fill-rule="evenodd" clip-rule="evenodd" d="M11.9799 21.9C11.7412 21.9 11.5123 21.8052 11.3435 21.6364L6.84351 17.1364C6.49204 16.7849 6.49204 16.2151 6.84351 15.8636C7.19499 15.5121 7.76483 15.5121 8.11631 15.8636L11.0799 18.8272V2.99999C11.0799 2.50293 11.4829 2.09999 11.9799 2.09999C12.477 2.09999 12.8799 2.50293 12.8799 2.99999V18.8272L15.8435 15.8636C16.195 15.5121 16.7648 15.5121 17.1163 15.8636C17.4678 16.2151 17.4678 16.7849 17.1163 17.1364L12.6163 21.6364C12.4475 21.8052 12.2186 21.9 11.9799 21.9Z" fill="currentColor"/>
<path fill-rule="evenodd" clip-rule="evenodd" d="M6.80505 8.13639C6.45358 7.78491 6.45357 7.21507 6.80505 6.86359L11.3435 2.32513C11.5123 2.15635 11.7412 2.06152 11.9799 2.06152C12.2186 2.06152 12.4475 2.15634 12.6163 2.32513L17.1548 6.86359C17.5062 7.21506 17.5062 7.78491 17.1548 8.13638C16.8033 8.48785 16.2334 8.48785 15.882 8.13638L11.9799 4.23432L8.07784 8.13638C7.72637 8.48786 7.15652 8.48786 6.80505 8.13639Z" fill="currentColor"/>
</svg>
