<svg width="24" height="24" viewBox="0 0 24 24" fill="none" xmlns="http://www.w3.org/2000/svg">
<path fill-rule="evenodd" clip-rule="evenodd" d="M11.3636 3.36358C11.7151 3.01211 12.2849 3.01211 12.6364 3.36358L17.0808 7.80802C17.4323 8.1595 17.4323 8.72934 17.0808 9.08082C16.7293 9.43229 16.1595 9.43229 15.808 9.08082L12.9 6.17277V14.6666C12.9 15.1637 12.497 15.5666 12 15.5666C11.5029 15.5666 11.1 15.1637 11.1 14.6666V6.17277L8.19193 9.08082C7.84046 9.43229 7.27061 9.43229 6.91914 9.08082C6.56766 8.72934 6.56766 8.1595 6.91914 7.80802L11.3636 3.36358ZM3.99998 13.7666C4.49703 13.7666 4.89998 14.1696 4.89998 14.6666V18.2222C4.89998 18.455 4.99246 18.6783 5.15707 18.8429C5.32169 19.0075 5.54495 19.1 5.77775 19.1H18.2222C18.455 19.1 18.6783 19.0075 18.8429 18.8429C19.0075 18.6783 19.1 18.455 19.1 18.2222V14.6666C19.1 14.1696 19.5029 13.7666 20 13.7666C20.497 13.7666 20.9 14.1696 20.9 14.6666V18.2222C20.9 18.9324 20.6179 19.6135 20.1157 20.1157C19.6135 20.6179 18.9324 20.9 18.2222 20.9H5.77775C5.06756 20.9 4.38646 20.6179 3.88428 20.1157C3.3821 19.6135 3.09998 18.9324 3.09998 18.2222V14.6666C3.09998 14.1696 3.50292 13.7666 3.99998 13.7666Z" fill="currentColor"/>
</svg>
