<svg width="24" height="24" viewBox="0 0 24 24" fill="none" xmlns="http://www.w3.org/2000/svg">
<g clip-path="url(#clip0_2735_1361)">
<path fill-rule="evenodd" clip-rule="evenodd" d="M19.8858 4.91303C19.884 4.41725 19.4816 4.01629 18.9858 4.01629L11.1532 4.01629C10.6562 4.01629 10.2532 4.41923 10.2532 4.91629C10.2532 5.41334 10.6562 5.81629 11.1532 5.81629L16.8161 5.81629L4.29345 18.3642C3.94233 18.7161 3.94291 19.2859 4.29473 19.637C4.64656 19.9882 5.21641 19.9876 5.56752 19.6358L18.0936 7.08434L18.1142 12.7805C18.116 13.2775 18.5204 13.679 19.0175 13.6772C19.5145 13.6754 19.916 13.271 19.9142 12.774L19.8858 4.91303Z" fill="currentColor"/>
</g>
<defs>
<clipPath id="clip0_2735_1361">
<rect width="24" height="24" fill="white"/>
</clipPath>
</defs>
</svg>
