<svg width="24" height="24" viewBox="0 0 24 24" fill="none" xmlns="http://www.w3.org/2000/svg">
<path d="M10 9.82422C10 9.03461 10.8724 8.55676 11.5381 8.98145L14.7344 11.0205C15.3361 11.4044 15.3536 12.2771 14.7676 12.6846L11.5713 14.9072C10.9083 15.3682 10.0002 14.8944 10 14.0869V9.82422Z" fill="currentColor"/>
<path fill-rule="evenodd" clip-rule="evenodd" d="M18 3.59961C20.1539 3.59961 21.9004 5.34609 21.9004 7.5V16.5C21.9004 18.6539 20.1539 20.4004 18 20.4004H6C3.84609 20.4004 2.09961 18.6539 2.09961 16.5V7.5C2.09961 5.34609 3.84609 3.59961 6 3.59961H18ZM6 5.40039C4.8402 5.40039 3.90039 6.3402 3.90039 7.5V16.5C3.90039 17.6598 4.8402 18.5996 6 18.5996H18C19.1598 18.5996 20.0996 17.6598 20.0996 16.5V7.5C20.0996 6.3402 19.1598 5.40039 18 5.40039H6Z" fill="currentColor"/>
</svg>
