<svg width="24" height="24" viewBox="0 0 24 24" fill="none" xmlns="http://www.w3.org/2000/svg">
<path fill-rule="evenodd" clip-rule="evenodd" d="M9.5 12.5C10.6046 12.5 11.5 13.3954 11.5 14.5V19C11.5 20.0357 10.7128 20.887 9.7041 20.9893L9.5 21H5L4.7959 20.9893C3.85435 20.8938 3.1062 20.1457 3.01074 19.2041L3 19V14.5C3 13.3954 3.89543 12.5 5 12.5H9.5ZM5 14.2998C4.88954 14.2998 4.7998 14.3895 4.7998 14.5V19C4.7998 19.1105 4.88954 19.2002 5 19.2002H9.5C9.61046 19.2002 9.7002 19.1105 9.7002 19V14.5C9.7002 14.3895 9.61046 14.2998 9.5 14.2998H5Z" fill="currentColor"/>
<path fill-rule="evenodd" clip-rule="evenodd" d="M19 12.5C20.1046 12.5 21 13.3954 21 14.5V19C21 20.0357 20.2128 20.887 19.2041 20.9893L19 21H14.5L14.2959 20.9893C13.3543 20.8938 12.6062 20.1457 12.5107 19.2041L12.5 19V14.5C12.5 13.3954 13.3954 12.5 14.5 12.5H19ZM14.5 14.2998C14.3895 14.2998 14.2998 14.3895 14.2998 14.5V19C14.2998 19.1105 14.3895 19.2002 14.5 19.2002H19C19.1105 19.2002 19.2002 19.1105 19.2002 19V14.5C19.2002 14.3895 19.1105 14.2998 19 14.2998H14.5Z" fill="currentColor"/>
<path fill-rule="evenodd" clip-rule="evenodd" d="M9.5 3C10.6046 3 11.5 3.89543 11.5 5V9.5C11.5 10.5357 10.7128 11.387 9.7041 11.4893L9.5 11.5H5L4.7959 11.4893C3.85435 11.3938 3.1062 10.6457 3.01074 9.7041L3 9.5V5C3 3.89543 3.89543 3 5 3H9.5ZM5 4.7998C4.88954 4.7998 4.7998 4.88954 4.7998 5V9.5C4.7998 9.61046 4.88954 9.7002 5 9.7002H9.5C9.61046 9.7002 9.7002 9.61046 9.7002 9.5V5C9.7002 4.88954 9.61046 4.7998 9.5 4.7998H5Z" fill="currentColor"/>
<path fill-rule="evenodd" clip-rule="evenodd" d="M19 3C20.1046 3 21 3.89543 21 5V9.5C21 10.5357 20.2128 11.387 19.2041 11.4893L19 11.5H14.5L14.2959 11.4893C13.3543 11.3938 12.6062 10.6457 12.5107 9.7041L12.5 9.5V5C12.5 3.89543 13.3954 3 14.5 3H19ZM14.5 4.7998C14.3895 4.7998 14.2998 4.88954 14.2998 5V9.5C14.2998 9.61046 14.3895 9.7002 14.5 9.7002H19C19.1105 9.7002 19.2002 9.61046 19.2002 9.5V5C19.2002 4.88954 19.1105 4.7998 19 4.7998H14.5Z" fill="currentColor"/>
</svg>
