<svg width="24" height="24" viewBox="0 0 24 24" fill="none" xmlns="http://www.w3.org/2000/svg">
<g clip-path="url(#clip0_2492_12888)">
<path fill-rule="evenodd" clip-rule="evenodd" d="M8.89941 2.83126C10.678 1.29533 13.5165 2.54135 13.5166 4.96212V19.1926C13.5164 21.6278 10.6225 22.9023 8.82617 21.258L5.09961 17.8459H4.91504C3.36898 17.8457 2.11549 16.5922 2.11523 15.0461V9.47286C2.11523 7.94743 3.33357 6.71187 4.84082 6.67306H4.9873L5.06934 6.67501L8.73047 2.98946L8.89941 2.83126ZM11.7168 4.96212C11.7167 4.06985 10.6368 3.62446 10.0078 4.25704L5.79883 8.49532L4.94043 8.47286C4.37858 8.45881 3.91504 8.91075 3.91504 9.47286V15.0461L3.91992 15.1477C3.96759 15.6182 4.34211 15.9921 4.8125 16.0402L4.91504 16.0461H5.79883L10.042 19.9299C10.6433 20.4802 11.5889 20.115 11.7051 19.3508L11.7168 19.1926V4.96212Z" fill="currentColor"/>
<path d="M20.5293 8.91427C20.8989 8.54506 21.4832 8.5303 21.834 8.88107C22.1845 9.23201 22.1693 9.81626 21.7998 10.1858L19.7588 12.2268L21.7988 14.2688C22.1681 14.6384 22.1828 15.2226 21.832 15.5734C21.4812 15.9238 20.8978 15.9084 20.5283 15.5393L18.4873 13.4983L16.4453 15.5393C16.0757 15.9088 15.4915 15.9243 15.1406 15.5734C14.7899 15.2226 14.8053 14.6383 15.1748 14.2688L17.2158 12.2268L15.1738 10.1848C14.8044 9.81515 14.7888 9.23094 15.1396 8.88009C15.4905 8.52927 16.0747 8.54482 16.4443 8.91427L18.4863 10.9553L20.5293 8.91427Z" fill="currentColor"/>
</g>
<defs>
<clipPath id="clip0_2492_12888">
<rect width="24" height="24" fill="white"/>
</clipPath>
</defs>
</svg>
