<svg width="24" height="24" viewBox="0 0 24 24" fill="none" xmlns="http://www.w3.org/2000/svg">
<g clip-path="url(#clip0_2543_8249)">
<path fill-rule="evenodd" clip-rule="evenodd" d="M8.84183 2.83114C10.6204 1.29521 13.4589 2.54123 13.459 4.962V19.1925C13.4588 21.6277 10.5649 22.9021 8.76859 21.2579L5.04202 17.8458H4.85745C3.31142 17.8455 2.0579 16.592 2.05765 15.046V9.47274C2.05765 7.94733 3.27601 6.71178 4.78323 6.67294H4.92972L5.01175 6.67489L8.67288 2.98934L8.84183 2.83114ZM11.6592 4.962C11.6591 4.06973 10.5792 3.62434 9.95023 4.25692L5.74124 8.4952L4.88284 8.47274C4.32103 8.45872 3.85745 8.91065 3.85745 9.47274V15.046L3.86234 15.1475C3.91 15.618 4.28455 15.992 4.75491 16.0401L4.85745 16.046H5.74124L9.98441 19.9298C10.5858 20.4801 11.5313 20.1149 11.6475 19.3507L11.6592 19.1925V4.962Z" fill="currentColor"/>
<path d="M18.4805 7.23153C18.832 6.88044 19.4026 6.88021 19.7539 7.23153C21.0763 8.55385 21.8227 10.3459 21.8301 12.2159C21.8374 14.0861 21.104 15.8842 19.792 17.2169C19.4433 17.5706 18.8736 17.5751 18.5196 17.2266C18.1654 16.8779 18.1611 16.3074 18.5098 15.9532C19.4884 14.959 20.0348 13.6178 20.0293 12.2227C20.0237 10.8277 19.467 9.4914 18.4805 8.50497C18.129 8.15352 18.129 7.58302 18.4805 7.23153Z" fill="currentColor"/>
<path d="M15.293 8.87216C15.6445 8.521 16.2151 8.5208 16.5664 8.87216C17.4558 9.76156 17.9579 10.967 17.9629 12.2247C17.9677 13.4826 17.4744 14.6926 16.5918 15.589C16.2432 15.9427 15.6735 15.9469 15.3194 15.5987C14.9652 15.2499 14.9608 14.6794 15.3096 14.3253C15.8586 13.7675 16.165 13.0151 16.1621 12.2325C16.1591 11.4496 15.8465 10.6992 15.293 10.1456C14.9415 9.79414 14.9416 9.22364 15.293 8.87216Z" fill="currentColor"/>
</g>
<defs>
<clipPath id="clip0_2543_8249">
<rect width="24" height="24" fill="white"/>
</clipPath>
</defs>
</svg>
