<svg width="24" height="24" viewBox="0 0 24 24" fill="none" xmlns="http://www.w3.org/2000/svg">
<path d="M11.9996 7C11.5026 7 11.0996 7.36985 11.0996 7.82609V14.1739C11.0996 14.6301 11.5026 15 11.9996 15C12.4967 15 12.8996 14.6301 12.8996 14.1739V7.82609C12.8996 7.36985 12.4967 7 11.9996 7Z" fill="currentColor"/>
<path d="M12.8996 17.1006C12.8996 17.5974 12.4968 18.001 11.9992 18.001C11.5024 18.001 11.0996 17.5974 11.0996 17.1006C11.0996 16.6038 11.5024 16.2002 11.9992 16.2002C12.4968 16.2002 12.8996 16.6038 12.8996 17.1006Z" fill="currentColor"/>
<path fill-rule="evenodd" clip-rule="evenodd" d="M14.5108 3.5501C13.3946 1.61676 10.6041 1.61676 9.48786 3.5501L1.69363 17.0501C0.577423 18.9834 1.97269 21.4001 4.20511 21.4001H19.7936C22.026 21.4001 23.4212 18.9834 22.305 17.0501L14.5108 3.5501ZM11.0467 4.4501C11.4701 3.71676 12.5286 3.71676 12.952 4.4501L20.7462 17.9501C21.1696 18.6834 20.6403 19.6001 19.7936 19.6001H4.20511C3.35833 19.6001 2.82909 18.6834 3.25248 17.9501L11.0467 4.4501Z" fill="currentColor"/>
</svg>
